G04 #@! TF.GenerationSoftware,KiCad,Pcbnew,(5.0.2)-1*
G04 #@! TF.CreationDate,2020-09-06T16:48:15+01:00*
G04 #@! TF.ProjectId,temperature-logger,74656d70-6572-4617-9475-72652d6c6f67,rev?*
G04 #@! TF.SameCoordinates,Original*
G04 #@! TF.FileFunction,Soldermask,Top*
G04 #@! TF.FilePolarity,Negative*
%FSLAX46Y46*%
G04 Gerber Fmt 4.6, Leading zero omitted, Abs format (unit mm)*
G04 Created by KiCad (PCBNEW (5.0.2)-1) date 06/09/2020 16:48:15*
%MOMM*%
%LPD*%
G01*
G04 APERTURE LIST*
%ADD10C,0.100000*%
G04 APERTURE END LIST*
D10*
G36*
X90820443Y-104605519D02*
X90886627Y-104612037D01*
X90999853Y-104646384D01*
X91056467Y-104663557D01*
X91195087Y-104737652D01*
X91212991Y-104747222D01*
X91248729Y-104776552D01*
X91350186Y-104859814D01*
X91433448Y-104961271D01*
X91462778Y-104997009D01*
X91462779Y-104997011D01*
X91546443Y-105153533D01*
X91546443Y-105153534D01*
X91597963Y-105323373D01*
X91615359Y-105500000D01*
X91597963Y-105676627D01*
X91563616Y-105789853D01*
X91546443Y-105846467D01*
X91472348Y-105985087D01*
X91462778Y-106002991D01*
X91433448Y-106038729D01*
X91350186Y-106140186D01*
X91248729Y-106223448D01*
X91212991Y-106252778D01*
X91212989Y-106252779D01*
X91056467Y-106336443D01*
X90999853Y-106353616D01*
X90886627Y-106387963D01*
X90820442Y-106394482D01*
X90754260Y-106401000D01*
X90665740Y-106401000D01*
X90599558Y-106394482D01*
X90533373Y-106387963D01*
X90420147Y-106353616D01*
X90363533Y-106336443D01*
X90207011Y-106252779D01*
X90207009Y-106252778D01*
X90171271Y-106223448D01*
X90069814Y-106140186D01*
X89986552Y-106038729D01*
X89957222Y-106002991D01*
X89947652Y-105985087D01*
X89873557Y-105846467D01*
X89856384Y-105789853D01*
X89822037Y-105676627D01*
X89804641Y-105500000D01*
X89822037Y-105323373D01*
X89873557Y-105153534D01*
X89873557Y-105153533D01*
X89957221Y-104997011D01*
X89957222Y-104997009D01*
X89986552Y-104961271D01*
X90069814Y-104859814D01*
X90171271Y-104776552D01*
X90207009Y-104747222D01*
X90224913Y-104737652D01*
X90363533Y-104663557D01*
X90420147Y-104646384D01*
X90533373Y-104612037D01*
X90599558Y-104605518D01*
X90665740Y-104599000D01*
X90754260Y-104599000D01*
X90820443Y-104605519D01*
X90820443Y-104605519D01*
G37*
G36*
X88280443Y-104605519D02*
X88346627Y-104612037D01*
X88459853Y-104646384D01*
X88516467Y-104663557D01*
X88655087Y-104737652D01*
X88672991Y-104747222D01*
X88708729Y-104776552D01*
X88810186Y-104859814D01*
X88893448Y-104961271D01*
X88922778Y-104997009D01*
X88922779Y-104997011D01*
X89006443Y-105153533D01*
X89006443Y-105153534D01*
X89057963Y-105323373D01*
X89075359Y-105500000D01*
X89057963Y-105676627D01*
X89023616Y-105789853D01*
X89006443Y-105846467D01*
X88932348Y-105985087D01*
X88922778Y-106002991D01*
X88893448Y-106038729D01*
X88810186Y-106140186D01*
X88708729Y-106223448D01*
X88672991Y-106252778D01*
X88672989Y-106252779D01*
X88516467Y-106336443D01*
X88459853Y-106353616D01*
X88346627Y-106387963D01*
X88280442Y-106394482D01*
X88214260Y-106401000D01*
X88125740Y-106401000D01*
X88059558Y-106394482D01*
X87993373Y-106387963D01*
X87880147Y-106353616D01*
X87823533Y-106336443D01*
X87667011Y-106252779D01*
X87667009Y-106252778D01*
X87631271Y-106223448D01*
X87529814Y-106140186D01*
X87446552Y-106038729D01*
X87417222Y-106002991D01*
X87407652Y-105985087D01*
X87333557Y-105846467D01*
X87316384Y-105789853D01*
X87282037Y-105676627D01*
X87264641Y-105500000D01*
X87282037Y-105323373D01*
X87333557Y-105153534D01*
X87333557Y-105153533D01*
X87417221Y-104997011D01*
X87417222Y-104997009D01*
X87446552Y-104961271D01*
X87529814Y-104859814D01*
X87631271Y-104776552D01*
X87667009Y-104747222D01*
X87684913Y-104737652D01*
X87823533Y-104663557D01*
X87880147Y-104646384D01*
X87993373Y-104612037D01*
X88059558Y-104605518D01*
X88125740Y-104599000D01*
X88214260Y-104599000D01*
X88280443Y-104605519D01*
X88280443Y-104605519D01*
G37*
G36*
X85740443Y-104605519D02*
X85806627Y-104612037D01*
X85919853Y-104646384D01*
X85976467Y-104663557D01*
X86115087Y-104737652D01*
X86132991Y-104747222D01*
X86168729Y-104776552D01*
X86270186Y-104859814D01*
X86353448Y-104961271D01*
X86382778Y-104997009D01*
X86382779Y-104997011D01*
X86466443Y-105153533D01*
X86466443Y-105153534D01*
X86517963Y-105323373D01*
X86535359Y-105500000D01*
X86517963Y-105676627D01*
X86483616Y-105789853D01*
X86466443Y-105846467D01*
X86392348Y-105985087D01*
X86382778Y-106002991D01*
X86353448Y-106038729D01*
X86270186Y-106140186D01*
X86168729Y-106223448D01*
X86132991Y-106252778D01*
X86132989Y-106252779D01*
X85976467Y-106336443D01*
X85919853Y-106353616D01*
X85806627Y-106387963D01*
X85740442Y-106394482D01*
X85674260Y-106401000D01*
X85585740Y-106401000D01*
X85519558Y-106394482D01*
X85453373Y-106387963D01*
X85340147Y-106353616D01*
X85283533Y-106336443D01*
X85127011Y-106252779D01*
X85127009Y-106252778D01*
X85091271Y-106223448D01*
X84989814Y-106140186D01*
X84906552Y-106038729D01*
X84877222Y-106002991D01*
X84867652Y-105985087D01*
X84793557Y-105846467D01*
X84776384Y-105789853D01*
X84742037Y-105676627D01*
X84724641Y-105500000D01*
X84742037Y-105323373D01*
X84793557Y-105153534D01*
X84793557Y-105153533D01*
X84877221Y-104997011D01*
X84877222Y-104997009D01*
X84906552Y-104961271D01*
X84989814Y-104859814D01*
X85091271Y-104776552D01*
X85127009Y-104747222D01*
X85144913Y-104737652D01*
X85283533Y-104663557D01*
X85340147Y-104646384D01*
X85453373Y-104612037D01*
X85519558Y-104605518D01*
X85585740Y-104599000D01*
X85674260Y-104599000D01*
X85740443Y-104605519D01*
X85740443Y-104605519D01*
G37*
G36*
X83200443Y-104605519D02*
X83266627Y-104612037D01*
X83379853Y-104646384D01*
X83436467Y-104663557D01*
X83575087Y-104737652D01*
X83592991Y-104747222D01*
X83628729Y-104776552D01*
X83730186Y-104859814D01*
X83813448Y-104961271D01*
X83842778Y-104997009D01*
X83842779Y-104997011D01*
X83926443Y-105153533D01*
X83926443Y-105153534D01*
X83977963Y-105323373D01*
X83995359Y-105500000D01*
X83977963Y-105676627D01*
X83943616Y-105789853D01*
X83926443Y-105846467D01*
X83852348Y-105985087D01*
X83842778Y-106002991D01*
X83813448Y-106038729D01*
X83730186Y-106140186D01*
X83628729Y-106223448D01*
X83592991Y-106252778D01*
X83592989Y-106252779D01*
X83436467Y-106336443D01*
X83379853Y-106353616D01*
X83266627Y-106387963D01*
X83200442Y-106394482D01*
X83134260Y-106401000D01*
X83045740Y-106401000D01*
X82979558Y-106394482D01*
X82913373Y-106387963D01*
X82800147Y-106353616D01*
X82743533Y-106336443D01*
X82587011Y-106252779D01*
X82587009Y-106252778D01*
X82551271Y-106223448D01*
X82449814Y-106140186D01*
X82366552Y-106038729D01*
X82337222Y-106002991D01*
X82327652Y-105985087D01*
X82253557Y-105846467D01*
X82236384Y-105789853D01*
X82202037Y-105676627D01*
X82184641Y-105500000D01*
X82202037Y-105323373D01*
X82253557Y-105153534D01*
X82253557Y-105153533D01*
X82337221Y-104997011D01*
X82337222Y-104997009D01*
X82366552Y-104961271D01*
X82449814Y-104859814D01*
X82551271Y-104776552D01*
X82587009Y-104747222D01*
X82604913Y-104737652D01*
X82743533Y-104663557D01*
X82800147Y-104646384D01*
X82913373Y-104612037D01*
X82979558Y-104605518D01*
X83045740Y-104599000D01*
X83134260Y-104599000D01*
X83200443Y-104605519D01*
X83200443Y-104605519D01*
G37*
G36*
X94151000Y-106401000D02*
X92349000Y-106401000D01*
X92349000Y-104599000D01*
X94151000Y-104599000D01*
X94151000Y-106401000D01*
X94151000Y-106401000D01*
G37*
G36*
X90352527Y-95088736D02*
X90452410Y-95108604D01*
X90734674Y-95225521D01*
X90988705Y-95395259D01*
X91204741Y-95611295D01*
X91374479Y-95865326D01*
X91491396Y-96147590D01*
X91551000Y-96447240D01*
X91551000Y-96752760D01*
X91491396Y-97052410D01*
X91374479Y-97334674D01*
X91204741Y-97588705D01*
X90988705Y-97804741D01*
X90734674Y-97974479D01*
X90452410Y-98091396D01*
X90352527Y-98111264D01*
X90152762Y-98151000D01*
X89847238Y-98151000D01*
X89647473Y-98111264D01*
X89547590Y-98091396D01*
X89265326Y-97974479D01*
X89011295Y-97804741D01*
X88795259Y-97588705D01*
X88625521Y-97334674D01*
X88508604Y-97052410D01*
X88449000Y-96752760D01*
X88449000Y-96447240D01*
X88508604Y-96147590D01*
X88625521Y-95865326D01*
X88795259Y-95611295D01*
X89011295Y-95395259D01*
X89265326Y-95225521D01*
X89547590Y-95108604D01*
X89647473Y-95088736D01*
X89847238Y-95049000D01*
X90152762Y-95049000D01*
X90352527Y-95088736D01*
X90352527Y-95088736D01*
G37*
G36*
X110352527Y-95088736D02*
X110452410Y-95108604D01*
X110734674Y-95225521D01*
X110988705Y-95395259D01*
X111204741Y-95611295D01*
X111374479Y-95865326D01*
X111491396Y-96147590D01*
X111551000Y-96447240D01*
X111551000Y-96752760D01*
X111491396Y-97052410D01*
X111374479Y-97334674D01*
X111204741Y-97588705D01*
X110988705Y-97804741D01*
X110734674Y-97974479D01*
X110452410Y-98091396D01*
X110352527Y-98111264D01*
X110152762Y-98151000D01*
X109847238Y-98151000D01*
X109647473Y-98111264D01*
X109547590Y-98091396D01*
X109265326Y-97974479D01*
X109011295Y-97804741D01*
X108795259Y-97588705D01*
X108625521Y-97334674D01*
X108508604Y-97052410D01*
X108449000Y-96752760D01*
X108449000Y-96447240D01*
X108508604Y-96147590D01*
X108625521Y-95865326D01*
X108795259Y-95611295D01*
X109011295Y-95395259D01*
X109265326Y-95225521D01*
X109547590Y-95108604D01*
X109647473Y-95088736D01*
X109847238Y-95049000D01*
X110152762Y-95049000D01*
X110352527Y-95088736D01*
X110352527Y-95088736D01*
G37*
G36*
X100410721Y-90970174D02*
X100510995Y-91011709D01*
X100601245Y-91072012D01*
X100677988Y-91148755D01*
X100738291Y-91239005D01*
X100779826Y-91339279D01*
X100801000Y-91445730D01*
X100801000Y-91554270D01*
X100779826Y-91660721D01*
X100738291Y-91760995D01*
X100677988Y-91851245D01*
X100601245Y-91927988D01*
X100510995Y-91988291D01*
X100410721Y-92029826D01*
X100304270Y-92051000D01*
X100195730Y-92051000D01*
X100089279Y-92029826D01*
X99989005Y-91988291D01*
X99898755Y-91927988D01*
X99822012Y-91851245D01*
X99761709Y-91760995D01*
X99720174Y-91660721D01*
X99699000Y-91554270D01*
X99699000Y-91445730D01*
X99720174Y-91339279D01*
X99761709Y-91239005D01*
X99822012Y-91148755D01*
X99898755Y-91072012D01*
X99989005Y-91011709D01*
X100089279Y-90970174D01*
X100195730Y-90949000D01*
X100304270Y-90949000D01*
X100410721Y-90970174D01*
X100410721Y-90970174D01*
G37*
G36*
X92051000Y-92051000D02*
X87949000Y-92051000D01*
X87949000Y-87949000D01*
X92051000Y-87949000D01*
X92051000Y-92051000D01*
X92051000Y-92051000D01*
G37*
G36*
X98510721Y-90970174D02*
X98610995Y-91011709D01*
X98701245Y-91072012D01*
X98777988Y-91148755D01*
X98838291Y-91239005D01*
X98879826Y-91339279D01*
X98901000Y-91445730D01*
X98901000Y-91554270D01*
X98879826Y-91660721D01*
X98838291Y-91760995D01*
X98777988Y-91851245D01*
X98701245Y-91927988D01*
X98610995Y-91988291D01*
X98510721Y-92029826D01*
X98404270Y-92051000D01*
X98295730Y-92051000D01*
X98189279Y-92029826D01*
X98089005Y-91988291D01*
X97998755Y-91927988D01*
X97922012Y-91851245D01*
X97861709Y-91760995D01*
X97820174Y-91660721D01*
X97799000Y-91554270D01*
X97799000Y-91445730D01*
X97820174Y-91339279D01*
X97861709Y-91239005D01*
X97922012Y-91148755D01*
X97998755Y-91072012D01*
X98089005Y-91011709D01*
X98189279Y-90970174D01*
X98295730Y-90949000D01*
X98404270Y-90949000D01*
X98510721Y-90970174D01*
X98510721Y-90970174D01*
G37*
G36*
X112051000Y-92051000D02*
X107949000Y-92051000D01*
X107949000Y-87949000D01*
X112051000Y-87949000D01*
X112051000Y-92051000D01*
X112051000Y-92051000D01*
G37*
G36*
X90352527Y-81888736D02*
X90452410Y-81908604D01*
X90734674Y-82025521D01*
X90988705Y-82195259D01*
X91204741Y-82411295D01*
X91374479Y-82665326D01*
X91491396Y-82947590D01*
X91551000Y-83247240D01*
X91551000Y-83552760D01*
X91491396Y-83852410D01*
X91374479Y-84134674D01*
X91204741Y-84388705D01*
X90988705Y-84604741D01*
X90734674Y-84774479D01*
X90452410Y-84891396D01*
X90352527Y-84911264D01*
X90152762Y-84951000D01*
X89847238Y-84951000D01*
X89647473Y-84911264D01*
X89547590Y-84891396D01*
X89265326Y-84774479D01*
X89011295Y-84604741D01*
X88795259Y-84388705D01*
X88625521Y-84134674D01*
X88508604Y-83852410D01*
X88449000Y-83552760D01*
X88449000Y-83247240D01*
X88508604Y-82947590D01*
X88625521Y-82665326D01*
X88795259Y-82411295D01*
X89011295Y-82195259D01*
X89265326Y-82025521D01*
X89547590Y-81908604D01*
X89647473Y-81888736D01*
X89847238Y-81849000D01*
X90152762Y-81849000D01*
X90352527Y-81888736D01*
X90352527Y-81888736D01*
G37*
G36*
X110352527Y-81888736D02*
X110452410Y-81908604D01*
X110734674Y-82025521D01*
X110988705Y-82195259D01*
X111204741Y-82411295D01*
X111374479Y-82665326D01*
X111491396Y-82947590D01*
X111551000Y-83247240D01*
X111551000Y-83552760D01*
X111491396Y-83852410D01*
X111374479Y-84134674D01*
X111204741Y-84388705D01*
X110988705Y-84604741D01*
X110734674Y-84774479D01*
X110452410Y-84891396D01*
X110352527Y-84911264D01*
X110152762Y-84951000D01*
X109847238Y-84951000D01*
X109647473Y-84911264D01*
X109547590Y-84891396D01*
X109265326Y-84774479D01*
X109011295Y-84604741D01*
X108795259Y-84388705D01*
X108625521Y-84134674D01*
X108508604Y-83852410D01*
X108449000Y-83552760D01*
X108449000Y-83247240D01*
X108508604Y-82947590D01*
X108625521Y-82665326D01*
X108795259Y-82411295D01*
X109011295Y-82195259D01*
X109265326Y-82025521D01*
X109547590Y-81908604D01*
X109647473Y-81888736D01*
X109847238Y-81849000D01*
X110152762Y-81849000D01*
X110352527Y-81888736D01*
X110352527Y-81888736D01*
G37*
M02*
