G04 #@! TF.GenerationSoftware,KiCad,Pcbnew,(5.0.2)-1*
G04 #@! TF.CreationDate,2020-09-06T16:48:15+01:00*
G04 #@! TF.ProjectId,temperature-logger,74656d70-6572-4617-9475-72652d6c6f67,rev?*
G04 #@! TF.SameCoordinates,Original*
G04 #@! TF.FileFunction,Copper,L1,Top*
G04 #@! TF.FilePolarity,Positive*
%FSLAX46Y46*%
G04 Gerber Fmt 4.6, Leading zero omitted, Abs format (unit mm)*
G04 Created by KiCad (PCBNEW (5.0.2)-1) date 06/09/2020 16:48:15*
%MOMM*%
%LPD*%
G01*
G04 APERTURE LIST*
G04 #@! TA.AperFunction,SMDPad,CuDef*
%ADD10R,4.000000X4.000000*%
G04 #@! TD*
G04 #@! TA.AperFunction,ComponentPad*
%ADD11C,3.000000*%
G04 #@! TD*
G04 #@! TA.AperFunction,ComponentPad*
%ADD12R,1.700000X1.700000*%
G04 #@! TD*
G04 #@! TA.AperFunction,ComponentPad*
%ADD13O,1.700000X1.700000*%
G04 #@! TD*
G04 #@! TA.AperFunction,ComponentPad*
%ADD14C,1.000000*%
G04 #@! TD*
G04 #@! TA.AperFunction,ViaPad*
%ADD15C,0.800000*%
G04 #@! TD*
G04 #@! TA.AperFunction,ViaPad*
%ADD16C,1.600000*%
G04 #@! TD*
G04 #@! TA.AperFunction,ViaPad*
%ADD17C,0.600000*%
G04 #@! TD*
G04 #@! TA.AperFunction,Conductor*
%ADD18C,1.000000*%
G04 #@! TD*
G04 #@! TA.AperFunction,Conductor*
%ADD19C,0.500000*%
G04 #@! TD*
G04 #@! TA.AperFunction,Conductor*
%ADD20C,0.250000*%
G04 #@! TD*
G04 #@! TA.AperFunction,Conductor*
%ADD21C,0.254000*%
G04 #@! TD*
G04 APERTURE END LIST*
D10*
G04 #@! TO.P,BT1,2*
G04 #@! TO.N,+BATT*
X110000000Y-90000000D03*
D11*
G04 #@! TO.P,BT1,1*
G04 #@! TO.N,+6V*
X110000000Y-83400000D03*
X110000000Y-96600000D03*
G04 #@! TD*
G04 #@! TO.P,BT2,1*
G04 #@! TO.N,+BATT*
X90000000Y-83400000D03*
X90000000Y-96600000D03*
D10*
G04 #@! TO.P,BT2,2*
G04 #@! TO.N,GND*
X90000000Y-90000000D03*
G04 #@! TD*
D12*
G04 #@! TO.P,J1,1*
G04 #@! TO.N,/SCL*
X93250000Y-105500000D03*
D13*
G04 #@! TO.P,J1,2*
G04 #@! TO.N,/MISO*
X90710000Y-105500000D03*
G04 #@! TO.P,J1,3*
G04 #@! TO.N,/SDA*
X88170000Y-105500000D03*
G04 #@! TO.P,J1,4*
G04 #@! TO.N,/~RESET*
X85630000Y-105500000D03*
G04 #@! TO.P,J1,5*
G04 #@! TO.N,GND*
X83090000Y-105500000D03*
G04 #@! TD*
D14*
G04 #@! TO.P,Y1,1*
G04 #@! TO.N,Net-(U4-Pad1)*
X100250000Y-91500000D03*
G04 #@! TO.P,Y1,2*
G04 #@! TO.N,Net-(U4-Pad2)*
X98350000Y-91500000D03*
G04 #@! TD*
D15*
G04 #@! TO.N,+BATT*
X97750000Y-87000000D03*
X95250000Y-96000000D03*
D16*
G04 #@! TO.N,GND*
X90000000Y-87000000D03*
X89599987Y-93000000D03*
D15*
X92500000Y-93000000D03*
D16*
G04 #@! TO.N,+5V*
X115500000Y-86000000D03*
X115500000Y-94000000D03*
D15*
X117750000Y-106000000D03*
X101000000Y-103000000D03*
X86000000Y-86250000D03*
X98000000Y-82250000D03*
X101500000Y-91000000D03*
X93250000Y-99250000D03*
X86500000Y-99000000D03*
D17*
G04 #@! TO.N,/~RESET*
X93994989Y-88700901D03*
G04 #@! TD*
D18*
G04 #@! TO.N,+BATT*
X90000000Y-83400000D02*
X94150000Y-83400000D01*
X94150000Y-83400000D02*
X97750000Y-87000000D01*
X105000000Y-87000000D02*
X97750000Y-87000000D01*
X110000000Y-90000000D02*
X107000000Y-87000000D01*
X107000000Y-87000000D02*
X105000000Y-87000000D01*
D19*
X90600000Y-96000000D02*
X90000000Y-96600000D01*
X94000000Y-96000000D02*
X90600000Y-96000000D01*
X94000000Y-96000000D02*
X95250000Y-96000000D01*
G04 #@! TO.N,+6V*
X110000000Y-96600000D02*
X113500000Y-93100000D01*
X113500000Y-86900000D02*
X110000000Y-83400000D01*
X113500000Y-93100000D02*
X113500000Y-86900000D01*
D18*
G04 #@! TO.N,GND*
X90000000Y-90000000D02*
X90000000Y-87000000D01*
X90000000Y-87000000D02*
X90000000Y-87000000D01*
X90000000Y-90000000D02*
X89599987Y-90400013D01*
X89599987Y-91868630D02*
X89599987Y-93000000D01*
X89599987Y-90400013D02*
X89599987Y-91868630D01*
D19*
X90000000Y-90000000D02*
X92250000Y-92250000D01*
X92250000Y-92250000D02*
X92500000Y-92500000D01*
X92500000Y-92500000D02*
X92500000Y-93000000D01*
D20*
G04 #@! TO.N,/~RESET*
X85630000Y-105500000D02*
X85630000Y-105120000D01*
X85630000Y-105500000D02*
X85630000Y-97620000D01*
X85630000Y-97620000D02*
X89000000Y-94250000D01*
X89000000Y-94250000D02*
X93000000Y-94250000D01*
X93994989Y-93255011D02*
X93994989Y-88700901D01*
X93000000Y-94250000D02*
X93994989Y-93255011D01*
G04 #@! TD*
D21*
G04 #@! TO.N,+5V*
G36*
X119290000Y-109290000D02*
X80710000Y-109290000D01*
X80710000Y-105500000D01*
X81575908Y-105500000D01*
X81691161Y-106079418D01*
X82019375Y-106570625D01*
X82510582Y-106898839D01*
X82943744Y-106985000D01*
X83236256Y-106985000D01*
X83669418Y-106898839D01*
X84160625Y-106570625D01*
X84360000Y-106272239D01*
X84559375Y-106570625D01*
X85050582Y-106898839D01*
X85483744Y-106985000D01*
X85776256Y-106985000D01*
X86209418Y-106898839D01*
X86700625Y-106570625D01*
X86900000Y-106272239D01*
X87099375Y-106570625D01*
X87590582Y-106898839D01*
X88023744Y-106985000D01*
X88316256Y-106985000D01*
X88749418Y-106898839D01*
X89240625Y-106570625D01*
X89440000Y-106272239D01*
X89639375Y-106570625D01*
X90130582Y-106898839D01*
X90563744Y-106985000D01*
X90856256Y-106985000D01*
X91289418Y-106898839D01*
X91780625Y-106570625D01*
X91792816Y-106552381D01*
X91801843Y-106597765D01*
X91942191Y-106807809D01*
X92152235Y-106948157D01*
X92400000Y-106997440D01*
X94100000Y-106997440D01*
X94347765Y-106948157D01*
X94557809Y-106807809D01*
X94698157Y-106597765D01*
X94747440Y-106350000D01*
X94747440Y-104650000D01*
X94698157Y-104402235D01*
X94557809Y-104192191D01*
X94347765Y-104051843D01*
X94100000Y-104002560D01*
X92400000Y-104002560D01*
X92152235Y-104051843D01*
X91942191Y-104192191D01*
X91801843Y-104402235D01*
X91792816Y-104447619D01*
X91780625Y-104429375D01*
X91289418Y-104101161D01*
X90856256Y-104015000D01*
X90563744Y-104015000D01*
X90130582Y-104101161D01*
X89639375Y-104429375D01*
X89440000Y-104727761D01*
X89240625Y-104429375D01*
X88749418Y-104101161D01*
X88316256Y-104015000D01*
X88023744Y-104015000D01*
X87590582Y-104101161D01*
X87099375Y-104429375D01*
X86900000Y-104727761D01*
X86700625Y-104429375D01*
X86390000Y-104221822D01*
X86390000Y-97934801D01*
X87865000Y-96459802D01*
X87865000Y-97024678D01*
X88190034Y-97809380D01*
X88790620Y-98409966D01*
X89575322Y-98735000D01*
X90424678Y-98735000D01*
X91209380Y-98409966D01*
X91809966Y-97809380D01*
X92135000Y-97024678D01*
X92135000Y-96885000D01*
X94681993Y-96885000D01*
X95044126Y-97035000D01*
X95455874Y-97035000D01*
X95836280Y-96877431D01*
X96127431Y-96586280D01*
X96285000Y-96205874D01*
X96285000Y-95794126D01*
X96127431Y-95413720D01*
X95836280Y-95122569D01*
X95455874Y-94965000D01*
X95044126Y-94965000D01*
X94681993Y-95115000D01*
X91534346Y-95115000D01*
X91429346Y-95010000D01*
X92925153Y-95010000D01*
X93000000Y-95024888D01*
X93074847Y-95010000D01*
X93074852Y-95010000D01*
X93296537Y-94965904D01*
X93547929Y-94797929D01*
X93590331Y-94734470D01*
X94479462Y-93845340D01*
X94542918Y-93802940D01*
X94710893Y-93551548D01*
X94754989Y-93329863D01*
X94754989Y-93329858D01*
X94769877Y-93255011D01*
X94754989Y-93180164D01*
X94754989Y-91274234D01*
X97215000Y-91274234D01*
X97215000Y-91725766D01*
X97387793Y-92142926D01*
X97707074Y-92462207D01*
X98124234Y-92635000D01*
X98575766Y-92635000D01*
X98992926Y-92462207D01*
X99300000Y-92155133D01*
X99607074Y-92462207D01*
X100024234Y-92635000D01*
X100475766Y-92635000D01*
X100892926Y-92462207D01*
X101212207Y-92142926D01*
X101385000Y-91725766D01*
X101385000Y-91274234D01*
X101212207Y-90857074D01*
X100892926Y-90537793D01*
X100475766Y-90365000D01*
X100024234Y-90365000D01*
X99607074Y-90537793D01*
X99300000Y-90844867D01*
X98992926Y-90537793D01*
X98575766Y-90365000D01*
X98124234Y-90365000D01*
X97707074Y-90537793D01*
X97387793Y-90857074D01*
X97215000Y-91274234D01*
X94754989Y-91274234D01*
X94754989Y-89263191D01*
X94787644Y-89230536D01*
X94929989Y-88886884D01*
X94929989Y-88514918D01*
X94787644Y-88171266D01*
X94524624Y-87908246D01*
X94180972Y-87765901D01*
X93809006Y-87765901D01*
X93465354Y-87908246D01*
X93202334Y-88171266D01*
X93059989Y-88514918D01*
X93059989Y-88886884D01*
X93202334Y-89230536D01*
X93234990Y-89263192D01*
X93234989Y-92007032D01*
X93138049Y-91861951D01*
X93064154Y-91812576D01*
X92937426Y-91685848D01*
X92937424Y-91685845D01*
X92647440Y-91395861D01*
X92647440Y-88000000D01*
X92598157Y-87752235D01*
X92457809Y-87542191D01*
X92247765Y-87401843D01*
X92000000Y-87352560D01*
X91407198Y-87352560D01*
X91435000Y-87285439D01*
X91435000Y-86714561D01*
X91216534Y-86187138D01*
X90812862Y-85783466D01*
X90285439Y-85565000D01*
X89714561Y-85565000D01*
X89187138Y-85783466D01*
X88783466Y-86187138D01*
X88565000Y-86714561D01*
X88565000Y-87285439D01*
X88592802Y-87352560D01*
X88000000Y-87352560D01*
X87752235Y-87401843D01*
X87542191Y-87542191D01*
X87401843Y-87752235D01*
X87352560Y-88000000D01*
X87352560Y-92000000D01*
X87401843Y-92247765D01*
X87542191Y-92457809D01*
X87752235Y-92598157D01*
X88000000Y-92647440D01*
X88192789Y-92647440D01*
X88164987Y-92714561D01*
X88164987Y-93285439D01*
X88377268Y-93797930D01*
X85145528Y-97029671D01*
X85082072Y-97072071D01*
X85039672Y-97135527D01*
X85039671Y-97135528D01*
X84914097Y-97323463D01*
X84855112Y-97620000D01*
X84870001Y-97694852D01*
X84870000Y-104221822D01*
X84559375Y-104429375D01*
X84360000Y-104727761D01*
X84160625Y-104429375D01*
X83669418Y-104101161D01*
X83236256Y-104015000D01*
X82943744Y-104015000D01*
X82510582Y-104101161D01*
X82019375Y-104429375D01*
X81691161Y-104920582D01*
X81575908Y-105500000D01*
X80710000Y-105500000D01*
X80710000Y-82975322D01*
X87865000Y-82975322D01*
X87865000Y-83824678D01*
X88190034Y-84609380D01*
X88790620Y-85209966D01*
X89575322Y-85535000D01*
X90424678Y-85535000D01*
X91209380Y-85209966D01*
X91809966Y-84609380D01*
X91840775Y-84535000D01*
X93679869Y-84535000D01*
X96868389Y-87723521D01*
X96931711Y-87818289D01*
X97203661Y-88000000D01*
X97307145Y-88069146D01*
X97750000Y-88157235D01*
X97861783Y-88135000D01*
X106529869Y-88135000D01*
X107352560Y-88957691D01*
X107352560Y-92000000D01*
X107401843Y-92247765D01*
X107542191Y-92457809D01*
X107752235Y-92598157D01*
X108000000Y-92647440D01*
X112000000Y-92647440D01*
X112247765Y-92598157D01*
X112457809Y-92457809D01*
X112598157Y-92247765D01*
X112615000Y-92163088D01*
X112615000Y-92733421D01*
X110749059Y-94599363D01*
X110424678Y-94465000D01*
X109575322Y-94465000D01*
X108790620Y-94790034D01*
X108190034Y-95390620D01*
X107865000Y-96175322D01*
X107865000Y-97024678D01*
X108190034Y-97809380D01*
X108790620Y-98409966D01*
X109575322Y-98735000D01*
X110424678Y-98735000D01*
X111209380Y-98409966D01*
X111809966Y-97809380D01*
X112135000Y-97024678D01*
X112135000Y-96175322D01*
X112000637Y-95850941D01*
X114064156Y-93787423D01*
X114138049Y-93738049D01*
X114333652Y-93445310D01*
X114385000Y-93187165D01*
X114385000Y-93187161D01*
X114402337Y-93100001D01*
X114385000Y-93012841D01*
X114385000Y-86987159D01*
X114402337Y-86899999D01*
X114385000Y-86812839D01*
X114385000Y-86812835D01*
X114333652Y-86554690D01*
X114138049Y-86261951D01*
X114064156Y-86212577D01*
X112000637Y-84149059D01*
X112135000Y-83824678D01*
X112135000Y-82975322D01*
X111809966Y-82190620D01*
X111209380Y-81590034D01*
X110424678Y-81265000D01*
X109575322Y-81265000D01*
X108790620Y-81590034D01*
X108190034Y-82190620D01*
X107865000Y-82975322D01*
X107865000Y-83824678D01*
X108190034Y-84609380D01*
X108790620Y-85209966D01*
X109575322Y-85535000D01*
X110424678Y-85535000D01*
X110749059Y-85400637D01*
X112615001Y-87266580D01*
X112615001Y-87836916D01*
X112598157Y-87752235D01*
X112457809Y-87542191D01*
X112247765Y-87401843D01*
X112000000Y-87352560D01*
X108957691Y-87352560D01*
X107881613Y-86276482D01*
X107818289Y-86181711D01*
X107442855Y-85930854D01*
X107111783Y-85865000D01*
X107000000Y-85842765D01*
X106888217Y-85865000D01*
X98220132Y-85865000D01*
X95031613Y-82676482D01*
X94968289Y-82581711D01*
X94592855Y-82330854D01*
X94261783Y-82265000D01*
X94150000Y-82242765D01*
X94038217Y-82265000D01*
X91840775Y-82265000D01*
X91809966Y-82190620D01*
X91209380Y-81590034D01*
X90424678Y-81265000D01*
X89575322Y-81265000D01*
X88790620Y-81590034D01*
X88190034Y-82190620D01*
X87865000Y-82975322D01*
X80710000Y-82975322D01*
X80710000Y-80710000D01*
X119290001Y-80710000D01*
X119290000Y-109290000D01*
X119290000Y-109290000D01*
G37*
X119290000Y-109290000D02*
X80710000Y-109290000D01*
X80710000Y-105500000D01*
X81575908Y-105500000D01*
X81691161Y-106079418D01*
X82019375Y-106570625D01*
X82510582Y-106898839D01*
X82943744Y-106985000D01*
X83236256Y-106985000D01*
X83669418Y-106898839D01*
X84160625Y-106570625D01*
X84360000Y-106272239D01*
X84559375Y-106570625D01*
X85050582Y-106898839D01*
X85483744Y-106985000D01*
X85776256Y-106985000D01*
X86209418Y-106898839D01*
X86700625Y-106570625D01*
X86900000Y-106272239D01*
X87099375Y-106570625D01*
X87590582Y-106898839D01*
X88023744Y-106985000D01*
X88316256Y-106985000D01*
X88749418Y-106898839D01*
X89240625Y-106570625D01*
X89440000Y-106272239D01*
X89639375Y-106570625D01*
X90130582Y-106898839D01*
X90563744Y-106985000D01*
X90856256Y-106985000D01*
X91289418Y-106898839D01*
X91780625Y-106570625D01*
X91792816Y-106552381D01*
X91801843Y-106597765D01*
X91942191Y-106807809D01*
X92152235Y-106948157D01*
X92400000Y-106997440D01*
X94100000Y-106997440D01*
X94347765Y-106948157D01*
X94557809Y-106807809D01*
X94698157Y-106597765D01*
X94747440Y-106350000D01*
X94747440Y-104650000D01*
X94698157Y-104402235D01*
X94557809Y-104192191D01*
X94347765Y-104051843D01*
X94100000Y-104002560D01*
X92400000Y-104002560D01*
X92152235Y-104051843D01*
X91942191Y-104192191D01*
X91801843Y-104402235D01*
X91792816Y-104447619D01*
X91780625Y-104429375D01*
X91289418Y-104101161D01*
X90856256Y-104015000D01*
X90563744Y-104015000D01*
X90130582Y-104101161D01*
X89639375Y-104429375D01*
X89440000Y-104727761D01*
X89240625Y-104429375D01*
X88749418Y-104101161D01*
X88316256Y-104015000D01*
X88023744Y-104015000D01*
X87590582Y-104101161D01*
X87099375Y-104429375D01*
X86900000Y-104727761D01*
X86700625Y-104429375D01*
X86390000Y-104221822D01*
X86390000Y-97934801D01*
X87865000Y-96459802D01*
X87865000Y-97024678D01*
X88190034Y-97809380D01*
X88790620Y-98409966D01*
X89575322Y-98735000D01*
X90424678Y-98735000D01*
X91209380Y-98409966D01*
X91809966Y-97809380D01*
X92135000Y-97024678D01*
X92135000Y-96885000D01*
X94681993Y-96885000D01*
X95044126Y-97035000D01*
X95455874Y-97035000D01*
X95836280Y-96877431D01*
X96127431Y-96586280D01*
X96285000Y-96205874D01*
X96285000Y-95794126D01*
X96127431Y-95413720D01*
X95836280Y-95122569D01*
X95455874Y-94965000D01*
X95044126Y-94965000D01*
X94681993Y-95115000D01*
X91534346Y-95115000D01*
X91429346Y-95010000D01*
X92925153Y-95010000D01*
X93000000Y-95024888D01*
X93074847Y-95010000D01*
X93074852Y-95010000D01*
X93296537Y-94965904D01*
X93547929Y-94797929D01*
X93590331Y-94734470D01*
X94479462Y-93845340D01*
X94542918Y-93802940D01*
X94710893Y-93551548D01*
X94754989Y-93329863D01*
X94754989Y-93329858D01*
X94769877Y-93255011D01*
X94754989Y-93180164D01*
X94754989Y-91274234D01*
X97215000Y-91274234D01*
X97215000Y-91725766D01*
X97387793Y-92142926D01*
X97707074Y-92462207D01*
X98124234Y-92635000D01*
X98575766Y-92635000D01*
X98992926Y-92462207D01*
X99300000Y-92155133D01*
X99607074Y-92462207D01*
X100024234Y-92635000D01*
X100475766Y-92635000D01*
X100892926Y-92462207D01*
X101212207Y-92142926D01*
X101385000Y-91725766D01*
X101385000Y-91274234D01*
X101212207Y-90857074D01*
X100892926Y-90537793D01*
X100475766Y-90365000D01*
X100024234Y-90365000D01*
X99607074Y-90537793D01*
X99300000Y-90844867D01*
X98992926Y-90537793D01*
X98575766Y-90365000D01*
X98124234Y-90365000D01*
X97707074Y-90537793D01*
X97387793Y-90857074D01*
X97215000Y-91274234D01*
X94754989Y-91274234D01*
X94754989Y-89263191D01*
X94787644Y-89230536D01*
X94929989Y-88886884D01*
X94929989Y-88514918D01*
X94787644Y-88171266D01*
X94524624Y-87908246D01*
X94180972Y-87765901D01*
X93809006Y-87765901D01*
X93465354Y-87908246D01*
X93202334Y-88171266D01*
X93059989Y-88514918D01*
X93059989Y-88886884D01*
X93202334Y-89230536D01*
X93234990Y-89263192D01*
X93234989Y-92007032D01*
X93138049Y-91861951D01*
X93064154Y-91812576D01*
X92937426Y-91685848D01*
X92937424Y-91685845D01*
X92647440Y-91395861D01*
X92647440Y-88000000D01*
X92598157Y-87752235D01*
X92457809Y-87542191D01*
X92247765Y-87401843D01*
X92000000Y-87352560D01*
X91407198Y-87352560D01*
X91435000Y-87285439D01*
X91435000Y-86714561D01*
X91216534Y-86187138D01*
X90812862Y-85783466D01*
X90285439Y-85565000D01*
X89714561Y-85565000D01*
X89187138Y-85783466D01*
X88783466Y-86187138D01*
X88565000Y-86714561D01*
X88565000Y-87285439D01*
X88592802Y-87352560D01*
X88000000Y-87352560D01*
X87752235Y-87401843D01*
X87542191Y-87542191D01*
X87401843Y-87752235D01*
X87352560Y-88000000D01*
X87352560Y-92000000D01*
X87401843Y-92247765D01*
X87542191Y-92457809D01*
X87752235Y-92598157D01*
X88000000Y-92647440D01*
X88192789Y-92647440D01*
X88164987Y-92714561D01*
X88164987Y-93285439D01*
X88377268Y-93797930D01*
X85145528Y-97029671D01*
X85082072Y-97072071D01*
X85039672Y-97135527D01*
X85039671Y-97135528D01*
X84914097Y-97323463D01*
X84855112Y-97620000D01*
X84870001Y-97694852D01*
X84870000Y-104221822D01*
X84559375Y-104429375D01*
X84360000Y-104727761D01*
X84160625Y-104429375D01*
X83669418Y-104101161D01*
X83236256Y-104015000D01*
X82943744Y-104015000D01*
X82510582Y-104101161D01*
X82019375Y-104429375D01*
X81691161Y-104920582D01*
X81575908Y-105500000D01*
X80710000Y-105500000D01*
X80710000Y-82975322D01*
X87865000Y-82975322D01*
X87865000Y-83824678D01*
X88190034Y-84609380D01*
X88790620Y-85209966D01*
X89575322Y-85535000D01*
X90424678Y-85535000D01*
X91209380Y-85209966D01*
X91809966Y-84609380D01*
X91840775Y-84535000D01*
X93679869Y-84535000D01*
X96868389Y-87723521D01*
X96931711Y-87818289D01*
X97203661Y-88000000D01*
X97307145Y-88069146D01*
X97750000Y-88157235D01*
X97861783Y-88135000D01*
X106529869Y-88135000D01*
X107352560Y-88957691D01*
X107352560Y-92000000D01*
X107401843Y-92247765D01*
X107542191Y-92457809D01*
X107752235Y-92598157D01*
X108000000Y-92647440D01*
X112000000Y-92647440D01*
X112247765Y-92598157D01*
X112457809Y-92457809D01*
X112598157Y-92247765D01*
X112615000Y-92163088D01*
X112615000Y-92733421D01*
X110749059Y-94599363D01*
X110424678Y-94465000D01*
X109575322Y-94465000D01*
X108790620Y-94790034D01*
X108190034Y-95390620D01*
X107865000Y-96175322D01*
X107865000Y-97024678D01*
X108190034Y-97809380D01*
X108790620Y-98409966D01*
X109575322Y-98735000D01*
X110424678Y-98735000D01*
X111209380Y-98409966D01*
X111809966Y-97809380D01*
X112135000Y-97024678D01*
X112135000Y-96175322D01*
X112000637Y-95850941D01*
X114064156Y-93787423D01*
X114138049Y-93738049D01*
X114333652Y-93445310D01*
X114385000Y-93187165D01*
X114385000Y-93187161D01*
X114402337Y-93100001D01*
X114385000Y-93012841D01*
X114385000Y-86987159D01*
X114402337Y-86899999D01*
X114385000Y-86812839D01*
X114385000Y-86812835D01*
X114333652Y-86554690D01*
X114138049Y-86261951D01*
X114064156Y-86212577D01*
X112000637Y-84149059D01*
X112135000Y-83824678D01*
X112135000Y-82975322D01*
X111809966Y-82190620D01*
X111209380Y-81590034D01*
X110424678Y-81265000D01*
X109575322Y-81265000D01*
X108790620Y-81590034D01*
X108190034Y-82190620D01*
X107865000Y-82975322D01*
X107865000Y-83824678D01*
X108190034Y-84609380D01*
X108790620Y-85209966D01*
X109575322Y-85535000D01*
X110424678Y-85535000D01*
X110749059Y-85400637D01*
X112615001Y-87266580D01*
X112615001Y-87836916D01*
X112598157Y-87752235D01*
X112457809Y-87542191D01*
X112247765Y-87401843D01*
X112000000Y-87352560D01*
X108957691Y-87352560D01*
X107881613Y-86276482D01*
X107818289Y-86181711D01*
X107442855Y-85930854D01*
X107111783Y-85865000D01*
X107000000Y-85842765D01*
X106888217Y-85865000D01*
X98220132Y-85865000D01*
X95031613Y-82676482D01*
X94968289Y-82581711D01*
X94592855Y-82330854D01*
X94261783Y-82265000D01*
X94150000Y-82242765D01*
X94038217Y-82265000D01*
X91840775Y-82265000D01*
X91809966Y-82190620D01*
X91209380Y-81590034D01*
X90424678Y-81265000D01*
X89575322Y-81265000D01*
X88790620Y-81590034D01*
X88190034Y-82190620D01*
X87865000Y-82975322D01*
X80710000Y-82975322D01*
X80710000Y-80710000D01*
X119290001Y-80710000D01*
X119290000Y-109290000D01*
G04 #@! TD*
M02*
