M48
;DRILL file {KiCad (5.0.2)-1} date 06/09/2020 16:49:02
;FORMAT={-:-/ absolute / inch / decimal}
FMAT,2
INCH,TZ
T1C0.0118
T2C0.0157
T3C0.0197
T4C0.0315
T5C0.0394
T6C0.0748
%
G90
G05
T1
X3.7006Y-3.4922
T2
X3.3858Y-3.3957
X3.4055Y-3.8976
X3.6417Y-3.6614
X3.6713Y-3.9075
X3.75Y-3.7795
X3.8484Y-3.4252
X3.8583Y-3.2382
X3.9764Y-4.0551
X3.9961Y-3.5827
X4.6358Y-4.1732
T3
X3.872Y-3.6024
X3.9469Y-3.6024
T4
X3.5276Y-3.6614
X3.5433Y-3.4252
X4.5472Y-3.3858
X4.5472Y-3.7008
T5
X3.2713Y-4.1535
X3.3713Y-4.1535
X3.4713Y-4.1535
X3.5713Y-4.1535
X3.6713Y-4.1535
T6
X4.3307Y-3.2835
X4.3307Y-3.8031
X3.5433Y-3.2835
X3.5433Y-3.8031
T0
M30
