G04 #@! TF.GenerationSoftware,KiCad,Pcbnew,(5.0.2)-1*
G04 #@! TF.CreationDate,2020-09-06T16:55:04+01:00*
G04 #@! TF.ProjectId,temperature-logger,74656d70-6572-4617-9475-72652d6c6f67,rev?*
G04 #@! TF.SameCoordinates,Original*
G04 #@! TF.FileFunction,Copper,L2,Bot*
G04 #@! TF.FilePolarity,Positive*
%FSLAX46Y46*%
G04 Gerber Fmt 4.6, Leading zero omitted, Abs format (unit mm)*
G04 Created by KiCad (PCBNEW (5.0.2)-1) date 06/09/2020 16:55:04*
%MOMM*%
%LPD*%
G01*
G04 APERTURE LIST*
G04 #@! TA.AperFunction,Conductor*
%ADD10C,0.100000*%
G04 #@! TD*
G04 #@! TA.AperFunction,SMDPad,CuDef*
%ADD11C,1.150000*%
G04 #@! TD*
G04 #@! TA.AperFunction,SMDPad,CuDef*
%ADD12R,1.550000X0.600000*%
G04 #@! TD*
G04 #@! TA.AperFunction,ComponentPad*
%ADD13C,3.000000*%
G04 #@! TD*
G04 #@! TA.AperFunction,ComponentPad*
%ADD14R,1.700000X1.700000*%
G04 #@! TD*
G04 #@! TA.AperFunction,ComponentPad*
%ADD15O,1.700000X1.700000*%
G04 #@! TD*
G04 #@! TA.AperFunction,SMDPad,CuDef*
%ADD16R,1.700000X0.650000*%
G04 #@! TD*
G04 #@! TA.AperFunction,SMDPad,CuDef*
%ADD17R,2.200000X1.200000*%
G04 #@! TD*
G04 #@! TA.AperFunction,SMDPad,CuDef*
%ADD18R,6.400000X5.800000*%
G04 #@! TD*
G04 #@! TA.AperFunction,SMDPad,CuDef*
%ADD19R,0.600000X1.550000*%
G04 #@! TD*
G04 #@! TA.AperFunction,ComponentPad*
%ADD20C,1.000000*%
G04 #@! TD*
G04 #@! TA.AperFunction,ViaPad*
%ADD21C,0.800000*%
G04 #@! TD*
G04 #@! TA.AperFunction,ViaPad*
%ADD22C,1.600000*%
G04 #@! TD*
G04 #@! TA.AperFunction,ViaPad*
%ADD23C,0.600000*%
G04 #@! TD*
G04 #@! TA.AperFunction,Conductor*
%ADD24C,0.500000*%
G04 #@! TD*
G04 #@! TA.AperFunction,Conductor*
%ADD25C,1.000000*%
G04 #@! TD*
G04 #@! TA.AperFunction,Conductor*
%ADD26C,0.250000*%
G04 #@! TD*
G04 #@! TA.AperFunction,Conductor*
%ADD27C,0.254000*%
G04 #@! TD*
G04 APERTURE END LIST*
D10*
G04 #@! TO.N,+5V*
G04 #@! TO.C,C7*
G36*
X116874505Y-105301204D02*
X116898773Y-105304804D01*
X116922572Y-105310765D01*
X116945671Y-105319030D01*
X116967850Y-105329520D01*
X116988893Y-105342132D01*
X117008599Y-105356747D01*
X117026777Y-105373223D01*
X117043253Y-105391401D01*
X117057868Y-105411107D01*
X117070480Y-105432150D01*
X117080970Y-105454329D01*
X117089235Y-105477428D01*
X117095196Y-105501227D01*
X117098796Y-105525495D01*
X117100000Y-105549999D01*
X117100000Y-106450001D01*
X117098796Y-106474505D01*
X117095196Y-106498773D01*
X117089235Y-106522572D01*
X117080970Y-106545671D01*
X117070480Y-106567850D01*
X117057868Y-106588893D01*
X117043253Y-106608599D01*
X117026777Y-106626777D01*
X117008599Y-106643253D01*
X116988893Y-106657868D01*
X116967850Y-106670480D01*
X116945671Y-106680970D01*
X116922572Y-106689235D01*
X116898773Y-106695196D01*
X116874505Y-106698796D01*
X116850001Y-106700000D01*
X116199999Y-106700000D01*
X116175495Y-106698796D01*
X116151227Y-106695196D01*
X116127428Y-106689235D01*
X116104329Y-106680970D01*
X116082150Y-106670480D01*
X116061107Y-106657868D01*
X116041401Y-106643253D01*
X116023223Y-106626777D01*
X116006747Y-106608599D01*
X115992132Y-106588893D01*
X115979520Y-106567850D01*
X115969030Y-106545671D01*
X115960765Y-106522572D01*
X115954804Y-106498773D01*
X115951204Y-106474505D01*
X115950000Y-106450001D01*
X115950000Y-105549999D01*
X115951204Y-105525495D01*
X115954804Y-105501227D01*
X115960765Y-105477428D01*
X115969030Y-105454329D01*
X115979520Y-105432150D01*
X115992132Y-105411107D01*
X116006747Y-105391401D01*
X116023223Y-105373223D01*
X116041401Y-105356747D01*
X116061107Y-105342132D01*
X116082150Y-105329520D01*
X116104329Y-105319030D01*
X116127428Y-105310765D01*
X116151227Y-105304804D01*
X116175495Y-105301204D01*
X116199999Y-105300000D01*
X116850001Y-105300000D01*
X116874505Y-105301204D01*
X116874505Y-105301204D01*
G37*
D11*
G04 #@! TD*
G04 #@! TO.P,C7,1*
G04 #@! TO.N,+5V*
X116525000Y-106000000D03*
D10*
G04 #@! TO.N,GND*
G04 #@! TO.C,C7*
G36*
X114824505Y-105301204D02*
X114848773Y-105304804D01*
X114872572Y-105310765D01*
X114895671Y-105319030D01*
X114917850Y-105329520D01*
X114938893Y-105342132D01*
X114958599Y-105356747D01*
X114976777Y-105373223D01*
X114993253Y-105391401D01*
X115007868Y-105411107D01*
X115020480Y-105432150D01*
X115030970Y-105454329D01*
X115039235Y-105477428D01*
X115045196Y-105501227D01*
X115048796Y-105525495D01*
X115050000Y-105549999D01*
X115050000Y-106450001D01*
X115048796Y-106474505D01*
X115045196Y-106498773D01*
X115039235Y-106522572D01*
X115030970Y-106545671D01*
X115020480Y-106567850D01*
X115007868Y-106588893D01*
X114993253Y-106608599D01*
X114976777Y-106626777D01*
X114958599Y-106643253D01*
X114938893Y-106657868D01*
X114917850Y-106670480D01*
X114895671Y-106680970D01*
X114872572Y-106689235D01*
X114848773Y-106695196D01*
X114824505Y-106698796D01*
X114800001Y-106700000D01*
X114149999Y-106700000D01*
X114125495Y-106698796D01*
X114101227Y-106695196D01*
X114077428Y-106689235D01*
X114054329Y-106680970D01*
X114032150Y-106670480D01*
X114011107Y-106657868D01*
X113991401Y-106643253D01*
X113973223Y-106626777D01*
X113956747Y-106608599D01*
X113942132Y-106588893D01*
X113929520Y-106567850D01*
X113919030Y-106545671D01*
X113910765Y-106522572D01*
X113904804Y-106498773D01*
X113901204Y-106474505D01*
X113900000Y-106450001D01*
X113900000Y-105549999D01*
X113901204Y-105525495D01*
X113904804Y-105501227D01*
X113910765Y-105477428D01*
X113919030Y-105454329D01*
X113929520Y-105432150D01*
X113942132Y-105411107D01*
X113956747Y-105391401D01*
X113973223Y-105373223D01*
X113991401Y-105356747D01*
X114011107Y-105342132D01*
X114032150Y-105329520D01*
X114054329Y-105319030D01*
X114077428Y-105310765D01*
X114101227Y-105304804D01*
X114125495Y-105301204D01*
X114149999Y-105300000D01*
X114800001Y-105300000D01*
X114824505Y-105301204D01*
X114824505Y-105301204D01*
G37*
D11*
G04 #@! TD*
G04 #@! TO.P,C7,2*
G04 #@! TO.N,GND*
X114475000Y-106000000D03*
D10*
G04 #@! TO.N,+5V*
G04 #@! TO.C,R3*
G36*
X101974505Y-89201204D02*
X101998773Y-89204804D01*
X102022572Y-89210765D01*
X102045671Y-89219030D01*
X102067850Y-89229520D01*
X102088893Y-89242132D01*
X102108599Y-89256747D01*
X102126777Y-89273223D01*
X102143253Y-89291401D01*
X102157868Y-89311107D01*
X102170480Y-89332150D01*
X102180970Y-89354329D01*
X102189235Y-89377428D01*
X102195196Y-89401227D01*
X102198796Y-89425495D01*
X102200000Y-89449999D01*
X102200000Y-90100001D01*
X102198796Y-90124505D01*
X102195196Y-90148773D01*
X102189235Y-90172572D01*
X102180970Y-90195671D01*
X102170480Y-90217850D01*
X102157868Y-90238893D01*
X102143253Y-90258599D01*
X102126777Y-90276777D01*
X102108599Y-90293253D01*
X102088893Y-90307868D01*
X102067850Y-90320480D01*
X102045671Y-90330970D01*
X102022572Y-90339235D01*
X101998773Y-90345196D01*
X101974505Y-90348796D01*
X101950001Y-90350000D01*
X101049999Y-90350000D01*
X101025495Y-90348796D01*
X101001227Y-90345196D01*
X100977428Y-90339235D01*
X100954329Y-90330970D01*
X100932150Y-90320480D01*
X100911107Y-90307868D01*
X100891401Y-90293253D01*
X100873223Y-90276777D01*
X100856747Y-90258599D01*
X100842132Y-90238893D01*
X100829520Y-90217850D01*
X100819030Y-90195671D01*
X100810765Y-90172572D01*
X100804804Y-90148773D01*
X100801204Y-90124505D01*
X100800000Y-90100001D01*
X100800000Y-89449999D01*
X100801204Y-89425495D01*
X100804804Y-89401227D01*
X100810765Y-89377428D01*
X100819030Y-89354329D01*
X100829520Y-89332150D01*
X100842132Y-89311107D01*
X100856747Y-89291401D01*
X100873223Y-89273223D01*
X100891401Y-89256747D01*
X100911107Y-89242132D01*
X100932150Y-89229520D01*
X100954329Y-89219030D01*
X100977428Y-89210765D01*
X101001227Y-89204804D01*
X101025495Y-89201204D01*
X101049999Y-89200000D01*
X101950001Y-89200000D01*
X101974505Y-89201204D01*
X101974505Y-89201204D01*
G37*
D11*
G04 #@! TD*
G04 #@! TO.P,R3,1*
G04 #@! TO.N,+5V*
X101500000Y-89775000D03*
D10*
G04 #@! TO.N,/SQW*
G04 #@! TO.C,R3*
G36*
X101974505Y-87151204D02*
X101998773Y-87154804D01*
X102022572Y-87160765D01*
X102045671Y-87169030D01*
X102067850Y-87179520D01*
X102088893Y-87192132D01*
X102108599Y-87206747D01*
X102126777Y-87223223D01*
X102143253Y-87241401D01*
X102157868Y-87261107D01*
X102170480Y-87282150D01*
X102180970Y-87304329D01*
X102189235Y-87327428D01*
X102195196Y-87351227D01*
X102198796Y-87375495D01*
X102200000Y-87399999D01*
X102200000Y-88050001D01*
X102198796Y-88074505D01*
X102195196Y-88098773D01*
X102189235Y-88122572D01*
X102180970Y-88145671D01*
X102170480Y-88167850D01*
X102157868Y-88188893D01*
X102143253Y-88208599D01*
X102126777Y-88226777D01*
X102108599Y-88243253D01*
X102088893Y-88257868D01*
X102067850Y-88270480D01*
X102045671Y-88280970D01*
X102022572Y-88289235D01*
X101998773Y-88295196D01*
X101974505Y-88298796D01*
X101950001Y-88300000D01*
X101049999Y-88300000D01*
X101025495Y-88298796D01*
X101001227Y-88295196D01*
X100977428Y-88289235D01*
X100954329Y-88280970D01*
X100932150Y-88270480D01*
X100911107Y-88257868D01*
X100891401Y-88243253D01*
X100873223Y-88226777D01*
X100856747Y-88208599D01*
X100842132Y-88188893D01*
X100829520Y-88167850D01*
X100819030Y-88145671D01*
X100810765Y-88122572D01*
X100804804Y-88098773D01*
X100801204Y-88074505D01*
X100800000Y-88050001D01*
X100800000Y-87399999D01*
X100801204Y-87375495D01*
X100804804Y-87351227D01*
X100810765Y-87327428D01*
X100819030Y-87304329D01*
X100829520Y-87282150D01*
X100842132Y-87261107D01*
X100856747Y-87241401D01*
X100873223Y-87223223D01*
X100891401Y-87206747D01*
X100911107Y-87192132D01*
X100932150Y-87179520D01*
X100954329Y-87169030D01*
X100977428Y-87160765D01*
X101001227Y-87154804D01*
X101025495Y-87151204D01*
X101049999Y-87150000D01*
X101950001Y-87150000D01*
X101974505Y-87151204D01*
X101974505Y-87151204D01*
G37*
D11*
G04 #@! TD*
G04 #@! TO.P,R3,2*
G04 #@! TO.N,/SQW*
X101500000Y-87725000D03*
D10*
G04 #@! TO.N,+BATT*
G04 #@! TO.C,C8*
G36*
X96974505Y-91401204D02*
X96998773Y-91404804D01*
X97022572Y-91410765D01*
X97045671Y-91419030D01*
X97067850Y-91429520D01*
X97088893Y-91442132D01*
X97108599Y-91456747D01*
X97126777Y-91473223D01*
X97143253Y-91491401D01*
X97157868Y-91511107D01*
X97170480Y-91532150D01*
X97180970Y-91554329D01*
X97189235Y-91577428D01*
X97195196Y-91601227D01*
X97198796Y-91625495D01*
X97200000Y-91649999D01*
X97200000Y-92300001D01*
X97198796Y-92324505D01*
X97195196Y-92348773D01*
X97189235Y-92372572D01*
X97180970Y-92395671D01*
X97170480Y-92417850D01*
X97157868Y-92438893D01*
X97143253Y-92458599D01*
X97126777Y-92476777D01*
X97108599Y-92493253D01*
X97088893Y-92507868D01*
X97067850Y-92520480D01*
X97045671Y-92530970D01*
X97022572Y-92539235D01*
X96998773Y-92545196D01*
X96974505Y-92548796D01*
X96950001Y-92550000D01*
X96049999Y-92550000D01*
X96025495Y-92548796D01*
X96001227Y-92545196D01*
X95977428Y-92539235D01*
X95954329Y-92530970D01*
X95932150Y-92520480D01*
X95911107Y-92507868D01*
X95891401Y-92493253D01*
X95873223Y-92476777D01*
X95856747Y-92458599D01*
X95842132Y-92438893D01*
X95829520Y-92417850D01*
X95819030Y-92395671D01*
X95810765Y-92372572D01*
X95804804Y-92348773D01*
X95801204Y-92324505D01*
X95800000Y-92300001D01*
X95800000Y-91649999D01*
X95801204Y-91625495D01*
X95804804Y-91601227D01*
X95810765Y-91577428D01*
X95819030Y-91554329D01*
X95829520Y-91532150D01*
X95842132Y-91511107D01*
X95856747Y-91491401D01*
X95873223Y-91473223D01*
X95891401Y-91456747D01*
X95911107Y-91442132D01*
X95932150Y-91429520D01*
X95954329Y-91419030D01*
X95977428Y-91410765D01*
X96001227Y-91404804D01*
X96025495Y-91401204D01*
X96049999Y-91400000D01*
X96950001Y-91400000D01*
X96974505Y-91401204D01*
X96974505Y-91401204D01*
G37*
D11*
G04 #@! TD*
G04 #@! TO.P,C8,1*
G04 #@! TO.N,+BATT*
X96500000Y-91975000D03*
D10*
G04 #@! TO.N,GND*
G04 #@! TO.C,C8*
G36*
X96974505Y-93451204D02*
X96998773Y-93454804D01*
X97022572Y-93460765D01*
X97045671Y-93469030D01*
X97067850Y-93479520D01*
X97088893Y-93492132D01*
X97108599Y-93506747D01*
X97126777Y-93523223D01*
X97143253Y-93541401D01*
X97157868Y-93561107D01*
X97170480Y-93582150D01*
X97180970Y-93604329D01*
X97189235Y-93627428D01*
X97195196Y-93651227D01*
X97198796Y-93675495D01*
X97200000Y-93699999D01*
X97200000Y-94350001D01*
X97198796Y-94374505D01*
X97195196Y-94398773D01*
X97189235Y-94422572D01*
X97180970Y-94445671D01*
X97170480Y-94467850D01*
X97157868Y-94488893D01*
X97143253Y-94508599D01*
X97126777Y-94526777D01*
X97108599Y-94543253D01*
X97088893Y-94557868D01*
X97067850Y-94570480D01*
X97045671Y-94580970D01*
X97022572Y-94589235D01*
X96998773Y-94595196D01*
X96974505Y-94598796D01*
X96950001Y-94600000D01*
X96049999Y-94600000D01*
X96025495Y-94598796D01*
X96001227Y-94595196D01*
X95977428Y-94589235D01*
X95954329Y-94580970D01*
X95932150Y-94570480D01*
X95911107Y-94557868D01*
X95891401Y-94543253D01*
X95873223Y-94526777D01*
X95856747Y-94508599D01*
X95842132Y-94488893D01*
X95829520Y-94467850D01*
X95819030Y-94445671D01*
X95810765Y-94422572D01*
X95804804Y-94398773D01*
X95801204Y-94374505D01*
X95800000Y-94350001D01*
X95800000Y-93699999D01*
X95801204Y-93675495D01*
X95804804Y-93651227D01*
X95810765Y-93627428D01*
X95819030Y-93604329D01*
X95829520Y-93582150D01*
X95842132Y-93561107D01*
X95856747Y-93541401D01*
X95873223Y-93523223D01*
X95891401Y-93506747D01*
X95911107Y-93492132D01*
X95932150Y-93479520D01*
X95954329Y-93469030D01*
X95977428Y-93460765D01*
X96001227Y-93454804D01*
X96025495Y-93451204D01*
X96049999Y-93450000D01*
X96950001Y-93450000D01*
X96974505Y-93451204D01*
X96974505Y-93451204D01*
G37*
D11*
G04 #@! TD*
G04 #@! TO.P,C8,2*
G04 #@! TO.N,GND*
X96500000Y-94025000D03*
D12*
G04 #@! TO.P,U3,8*
G04 #@! TO.N,+5V*
X116450000Y-104155000D03*
G04 #@! TO.P,U3,7*
G04 #@! TO.N,GND*
X116450000Y-102885000D03*
G04 #@! TO.P,U3,6*
X116450000Y-101615000D03*
G04 #@! TO.P,U3,5*
X116450000Y-100345000D03*
G04 #@! TO.P,U3,4*
X111050000Y-100345000D03*
G04 #@! TO.P,U3,3*
G04 #@! TO.N,Net-(U3-Pad3)*
X111050000Y-101615000D03*
G04 #@! TO.P,U3,2*
G04 #@! TO.N,/SCL*
X111050000Y-102885000D03*
G04 #@! TO.P,U3,1*
G04 #@! TO.N,/SDA*
X111050000Y-104155000D03*
G04 #@! TD*
D13*
G04 #@! TO.P,BT1,1*
G04 #@! TO.N,+6V*
X110000000Y-83400000D03*
X110000000Y-96600000D03*
G04 #@! TD*
G04 #@! TO.P,BT2,1*
G04 #@! TO.N,+BATT*
X90000000Y-83400000D03*
X90000000Y-96600000D03*
G04 #@! TD*
D10*
G04 #@! TO.N,GND*
G04 #@! TO.C,C1*
G36*
X95374505Y-81551204D02*
X95398773Y-81554804D01*
X95422572Y-81560765D01*
X95445671Y-81569030D01*
X95467850Y-81579520D01*
X95488893Y-81592132D01*
X95508599Y-81606747D01*
X95526777Y-81623223D01*
X95543253Y-81641401D01*
X95557868Y-81661107D01*
X95570480Y-81682150D01*
X95580970Y-81704329D01*
X95589235Y-81727428D01*
X95595196Y-81751227D01*
X95598796Y-81775495D01*
X95600000Y-81799999D01*
X95600000Y-82700001D01*
X95598796Y-82724505D01*
X95595196Y-82748773D01*
X95589235Y-82772572D01*
X95580970Y-82795671D01*
X95570480Y-82817850D01*
X95557868Y-82838893D01*
X95543253Y-82858599D01*
X95526777Y-82876777D01*
X95508599Y-82893253D01*
X95488893Y-82907868D01*
X95467850Y-82920480D01*
X95445671Y-82930970D01*
X95422572Y-82939235D01*
X95398773Y-82945196D01*
X95374505Y-82948796D01*
X95350001Y-82950000D01*
X94699999Y-82950000D01*
X94675495Y-82948796D01*
X94651227Y-82945196D01*
X94627428Y-82939235D01*
X94604329Y-82930970D01*
X94582150Y-82920480D01*
X94561107Y-82907868D01*
X94541401Y-82893253D01*
X94523223Y-82876777D01*
X94506747Y-82858599D01*
X94492132Y-82838893D01*
X94479520Y-82817850D01*
X94469030Y-82795671D01*
X94460765Y-82772572D01*
X94454804Y-82748773D01*
X94451204Y-82724505D01*
X94450000Y-82700001D01*
X94450000Y-81799999D01*
X94451204Y-81775495D01*
X94454804Y-81751227D01*
X94460765Y-81727428D01*
X94469030Y-81704329D01*
X94479520Y-81682150D01*
X94492132Y-81661107D01*
X94506747Y-81641401D01*
X94523223Y-81623223D01*
X94541401Y-81606747D01*
X94561107Y-81592132D01*
X94582150Y-81579520D01*
X94604329Y-81569030D01*
X94627428Y-81560765D01*
X94651227Y-81554804D01*
X94675495Y-81551204D01*
X94699999Y-81550000D01*
X95350001Y-81550000D01*
X95374505Y-81551204D01*
X95374505Y-81551204D01*
G37*
D11*
G04 #@! TD*
G04 #@! TO.P,C1,2*
G04 #@! TO.N,GND*
X95025000Y-82250000D03*
D10*
G04 #@! TO.N,+BATT*
G04 #@! TO.C,C1*
G36*
X93324505Y-81551204D02*
X93348773Y-81554804D01*
X93372572Y-81560765D01*
X93395671Y-81569030D01*
X93417850Y-81579520D01*
X93438893Y-81592132D01*
X93458599Y-81606747D01*
X93476777Y-81623223D01*
X93493253Y-81641401D01*
X93507868Y-81661107D01*
X93520480Y-81682150D01*
X93530970Y-81704329D01*
X93539235Y-81727428D01*
X93545196Y-81751227D01*
X93548796Y-81775495D01*
X93550000Y-81799999D01*
X93550000Y-82700001D01*
X93548796Y-82724505D01*
X93545196Y-82748773D01*
X93539235Y-82772572D01*
X93530970Y-82795671D01*
X93520480Y-82817850D01*
X93507868Y-82838893D01*
X93493253Y-82858599D01*
X93476777Y-82876777D01*
X93458599Y-82893253D01*
X93438893Y-82907868D01*
X93417850Y-82920480D01*
X93395671Y-82930970D01*
X93372572Y-82939235D01*
X93348773Y-82945196D01*
X93324505Y-82948796D01*
X93300001Y-82950000D01*
X92649999Y-82950000D01*
X92625495Y-82948796D01*
X92601227Y-82945196D01*
X92577428Y-82939235D01*
X92554329Y-82930970D01*
X92532150Y-82920480D01*
X92511107Y-82907868D01*
X92491401Y-82893253D01*
X92473223Y-82876777D01*
X92456747Y-82858599D01*
X92442132Y-82838893D01*
X92429520Y-82817850D01*
X92419030Y-82795671D01*
X92410765Y-82772572D01*
X92404804Y-82748773D01*
X92401204Y-82724505D01*
X92400000Y-82700001D01*
X92400000Y-81799999D01*
X92401204Y-81775495D01*
X92404804Y-81751227D01*
X92410765Y-81727428D01*
X92419030Y-81704329D01*
X92429520Y-81682150D01*
X92442132Y-81661107D01*
X92456747Y-81641401D01*
X92473223Y-81623223D01*
X92491401Y-81606747D01*
X92511107Y-81592132D01*
X92532150Y-81579520D01*
X92554329Y-81569030D01*
X92577428Y-81560765D01*
X92601227Y-81554804D01*
X92625495Y-81551204D01*
X92649999Y-81550000D01*
X93300001Y-81550000D01*
X93324505Y-81551204D01*
X93324505Y-81551204D01*
G37*
D11*
G04 #@! TD*
G04 #@! TO.P,C1,1*
G04 #@! TO.N,+BATT*
X92975000Y-82250000D03*
D10*
G04 #@! TO.N,+5V*
G04 #@! TO.C,C2*
G36*
X85374505Y-85551204D02*
X85398773Y-85554804D01*
X85422572Y-85560765D01*
X85445671Y-85569030D01*
X85467850Y-85579520D01*
X85488893Y-85592132D01*
X85508599Y-85606747D01*
X85526777Y-85623223D01*
X85543253Y-85641401D01*
X85557868Y-85661107D01*
X85570480Y-85682150D01*
X85580970Y-85704329D01*
X85589235Y-85727428D01*
X85595196Y-85751227D01*
X85598796Y-85775495D01*
X85600000Y-85799999D01*
X85600000Y-86700001D01*
X85598796Y-86724505D01*
X85595196Y-86748773D01*
X85589235Y-86772572D01*
X85580970Y-86795671D01*
X85570480Y-86817850D01*
X85557868Y-86838893D01*
X85543253Y-86858599D01*
X85526777Y-86876777D01*
X85508599Y-86893253D01*
X85488893Y-86907868D01*
X85467850Y-86920480D01*
X85445671Y-86930970D01*
X85422572Y-86939235D01*
X85398773Y-86945196D01*
X85374505Y-86948796D01*
X85350001Y-86950000D01*
X84699999Y-86950000D01*
X84675495Y-86948796D01*
X84651227Y-86945196D01*
X84627428Y-86939235D01*
X84604329Y-86930970D01*
X84582150Y-86920480D01*
X84561107Y-86907868D01*
X84541401Y-86893253D01*
X84523223Y-86876777D01*
X84506747Y-86858599D01*
X84492132Y-86838893D01*
X84479520Y-86817850D01*
X84469030Y-86795671D01*
X84460765Y-86772572D01*
X84454804Y-86748773D01*
X84451204Y-86724505D01*
X84450000Y-86700001D01*
X84450000Y-85799999D01*
X84451204Y-85775495D01*
X84454804Y-85751227D01*
X84460765Y-85727428D01*
X84469030Y-85704329D01*
X84479520Y-85682150D01*
X84492132Y-85661107D01*
X84506747Y-85641401D01*
X84523223Y-85623223D01*
X84541401Y-85606747D01*
X84561107Y-85592132D01*
X84582150Y-85579520D01*
X84604329Y-85569030D01*
X84627428Y-85560765D01*
X84651227Y-85554804D01*
X84675495Y-85551204D01*
X84699999Y-85550000D01*
X85350001Y-85550000D01*
X85374505Y-85551204D01*
X85374505Y-85551204D01*
G37*
D11*
G04 #@! TD*
G04 #@! TO.P,C2,1*
G04 #@! TO.N,+5V*
X85025000Y-86250000D03*
D10*
G04 #@! TO.N,GND*
G04 #@! TO.C,C2*
G36*
X83324505Y-85551204D02*
X83348773Y-85554804D01*
X83372572Y-85560765D01*
X83395671Y-85569030D01*
X83417850Y-85579520D01*
X83438893Y-85592132D01*
X83458599Y-85606747D01*
X83476777Y-85623223D01*
X83493253Y-85641401D01*
X83507868Y-85661107D01*
X83520480Y-85682150D01*
X83530970Y-85704329D01*
X83539235Y-85727428D01*
X83545196Y-85751227D01*
X83548796Y-85775495D01*
X83550000Y-85799999D01*
X83550000Y-86700001D01*
X83548796Y-86724505D01*
X83545196Y-86748773D01*
X83539235Y-86772572D01*
X83530970Y-86795671D01*
X83520480Y-86817850D01*
X83507868Y-86838893D01*
X83493253Y-86858599D01*
X83476777Y-86876777D01*
X83458599Y-86893253D01*
X83438893Y-86907868D01*
X83417850Y-86920480D01*
X83395671Y-86930970D01*
X83372572Y-86939235D01*
X83348773Y-86945196D01*
X83324505Y-86948796D01*
X83300001Y-86950000D01*
X82649999Y-86950000D01*
X82625495Y-86948796D01*
X82601227Y-86945196D01*
X82577428Y-86939235D01*
X82554329Y-86930970D01*
X82532150Y-86920480D01*
X82511107Y-86907868D01*
X82491401Y-86893253D01*
X82473223Y-86876777D01*
X82456747Y-86858599D01*
X82442132Y-86838893D01*
X82429520Y-86817850D01*
X82419030Y-86795671D01*
X82410765Y-86772572D01*
X82404804Y-86748773D01*
X82401204Y-86724505D01*
X82400000Y-86700001D01*
X82400000Y-85799999D01*
X82401204Y-85775495D01*
X82404804Y-85751227D01*
X82410765Y-85727428D01*
X82419030Y-85704329D01*
X82429520Y-85682150D01*
X82442132Y-85661107D01*
X82456747Y-85641401D01*
X82473223Y-85623223D01*
X82491401Y-85606747D01*
X82511107Y-85592132D01*
X82532150Y-85579520D01*
X82554329Y-85569030D01*
X82577428Y-85560765D01*
X82601227Y-85554804D01*
X82625495Y-85551204D01*
X82649999Y-85550000D01*
X83300001Y-85550000D01*
X83324505Y-85551204D01*
X83324505Y-85551204D01*
G37*
D11*
G04 #@! TD*
G04 #@! TO.P,C2,2*
G04 #@! TO.N,GND*
X82975000Y-86250000D03*
D10*
G04 #@! TO.N,GND*
G04 #@! TO.C,C3*
G36*
X106474505Y-88951204D02*
X106498773Y-88954804D01*
X106522572Y-88960765D01*
X106545671Y-88969030D01*
X106567850Y-88979520D01*
X106588893Y-88992132D01*
X106608599Y-89006747D01*
X106626777Y-89023223D01*
X106643253Y-89041401D01*
X106657868Y-89061107D01*
X106670480Y-89082150D01*
X106680970Y-89104329D01*
X106689235Y-89127428D01*
X106695196Y-89151227D01*
X106698796Y-89175495D01*
X106700000Y-89199999D01*
X106700000Y-89850001D01*
X106698796Y-89874505D01*
X106695196Y-89898773D01*
X106689235Y-89922572D01*
X106680970Y-89945671D01*
X106670480Y-89967850D01*
X106657868Y-89988893D01*
X106643253Y-90008599D01*
X106626777Y-90026777D01*
X106608599Y-90043253D01*
X106588893Y-90057868D01*
X106567850Y-90070480D01*
X106545671Y-90080970D01*
X106522572Y-90089235D01*
X106498773Y-90095196D01*
X106474505Y-90098796D01*
X106450001Y-90100000D01*
X105549999Y-90100000D01*
X105525495Y-90098796D01*
X105501227Y-90095196D01*
X105477428Y-90089235D01*
X105454329Y-90080970D01*
X105432150Y-90070480D01*
X105411107Y-90057868D01*
X105391401Y-90043253D01*
X105373223Y-90026777D01*
X105356747Y-90008599D01*
X105342132Y-89988893D01*
X105329520Y-89967850D01*
X105319030Y-89945671D01*
X105310765Y-89922572D01*
X105304804Y-89898773D01*
X105301204Y-89874505D01*
X105300000Y-89850001D01*
X105300000Y-89199999D01*
X105301204Y-89175495D01*
X105304804Y-89151227D01*
X105310765Y-89127428D01*
X105319030Y-89104329D01*
X105329520Y-89082150D01*
X105342132Y-89061107D01*
X105356747Y-89041401D01*
X105373223Y-89023223D01*
X105391401Y-89006747D01*
X105411107Y-88992132D01*
X105432150Y-88979520D01*
X105454329Y-88969030D01*
X105477428Y-88960765D01*
X105501227Y-88954804D01*
X105525495Y-88951204D01*
X105549999Y-88950000D01*
X106450001Y-88950000D01*
X106474505Y-88951204D01*
X106474505Y-88951204D01*
G37*
D11*
G04 #@! TD*
G04 #@! TO.P,C3,2*
G04 #@! TO.N,GND*
X106000000Y-89525000D03*
D10*
G04 #@! TO.N,+6V*
G04 #@! TO.C,C3*
G36*
X106474505Y-86901204D02*
X106498773Y-86904804D01*
X106522572Y-86910765D01*
X106545671Y-86919030D01*
X106567850Y-86929520D01*
X106588893Y-86942132D01*
X106608599Y-86956747D01*
X106626777Y-86973223D01*
X106643253Y-86991401D01*
X106657868Y-87011107D01*
X106670480Y-87032150D01*
X106680970Y-87054329D01*
X106689235Y-87077428D01*
X106695196Y-87101227D01*
X106698796Y-87125495D01*
X106700000Y-87149999D01*
X106700000Y-87800001D01*
X106698796Y-87824505D01*
X106695196Y-87848773D01*
X106689235Y-87872572D01*
X106680970Y-87895671D01*
X106670480Y-87917850D01*
X106657868Y-87938893D01*
X106643253Y-87958599D01*
X106626777Y-87976777D01*
X106608599Y-87993253D01*
X106588893Y-88007868D01*
X106567850Y-88020480D01*
X106545671Y-88030970D01*
X106522572Y-88039235D01*
X106498773Y-88045196D01*
X106474505Y-88048796D01*
X106450001Y-88050000D01*
X105549999Y-88050000D01*
X105525495Y-88048796D01*
X105501227Y-88045196D01*
X105477428Y-88039235D01*
X105454329Y-88030970D01*
X105432150Y-88020480D01*
X105411107Y-88007868D01*
X105391401Y-87993253D01*
X105373223Y-87976777D01*
X105356747Y-87958599D01*
X105342132Y-87938893D01*
X105329520Y-87917850D01*
X105319030Y-87895671D01*
X105310765Y-87872572D01*
X105304804Y-87848773D01*
X105301204Y-87824505D01*
X105300000Y-87800001D01*
X105300000Y-87149999D01*
X105301204Y-87125495D01*
X105304804Y-87101227D01*
X105310765Y-87077428D01*
X105319030Y-87054329D01*
X105329520Y-87032150D01*
X105342132Y-87011107D01*
X105356747Y-86991401D01*
X105373223Y-86973223D01*
X105391401Y-86956747D01*
X105411107Y-86942132D01*
X105432150Y-86929520D01*
X105454329Y-86919030D01*
X105477428Y-86910765D01*
X105501227Y-86904804D01*
X105525495Y-86901204D01*
X105549999Y-86900000D01*
X106450001Y-86900000D01*
X106474505Y-86901204D01*
X106474505Y-86901204D01*
G37*
D11*
G04 #@! TD*
G04 #@! TO.P,C3,1*
G04 #@! TO.N,+6V*
X106000000Y-87475000D03*
D10*
G04 #@! TO.N,GND*
G04 #@! TO.C,C4*
G36*
X117474505Y-97451204D02*
X117498773Y-97454804D01*
X117522572Y-97460765D01*
X117545671Y-97469030D01*
X117567850Y-97479520D01*
X117588893Y-97492132D01*
X117608599Y-97506747D01*
X117626777Y-97523223D01*
X117643253Y-97541401D01*
X117657868Y-97561107D01*
X117670480Y-97582150D01*
X117680970Y-97604329D01*
X117689235Y-97627428D01*
X117695196Y-97651227D01*
X117698796Y-97675495D01*
X117700000Y-97699999D01*
X117700000Y-98350001D01*
X117698796Y-98374505D01*
X117695196Y-98398773D01*
X117689235Y-98422572D01*
X117680970Y-98445671D01*
X117670480Y-98467850D01*
X117657868Y-98488893D01*
X117643253Y-98508599D01*
X117626777Y-98526777D01*
X117608599Y-98543253D01*
X117588893Y-98557868D01*
X117567850Y-98570480D01*
X117545671Y-98580970D01*
X117522572Y-98589235D01*
X117498773Y-98595196D01*
X117474505Y-98598796D01*
X117450001Y-98600000D01*
X116549999Y-98600000D01*
X116525495Y-98598796D01*
X116501227Y-98595196D01*
X116477428Y-98589235D01*
X116454329Y-98580970D01*
X116432150Y-98570480D01*
X116411107Y-98557868D01*
X116391401Y-98543253D01*
X116373223Y-98526777D01*
X116356747Y-98508599D01*
X116342132Y-98488893D01*
X116329520Y-98467850D01*
X116319030Y-98445671D01*
X116310765Y-98422572D01*
X116304804Y-98398773D01*
X116301204Y-98374505D01*
X116300000Y-98350001D01*
X116300000Y-97699999D01*
X116301204Y-97675495D01*
X116304804Y-97651227D01*
X116310765Y-97627428D01*
X116319030Y-97604329D01*
X116329520Y-97582150D01*
X116342132Y-97561107D01*
X116356747Y-97541401D01*
X116373223Y-97523223D01*
X116391401Y-97506747D01*
X116411107Y-97492132D01*
X116432150Y-97479520D01*
X116454329Y-97469030D01*
X116477428Y-97460765D01*
X116501227Y-97454804D01*
X116525495Y-97451204D01*
X116549999Y-97450000D01*
X117450001Y-97450000D01*
X117474505Y-97451204D01*
X117474505Y-97451204D01*
G37*
D11*
G04 #@! TD*
G04 #@! TO.P,C4,2*
G04 #@! TO.N,GND*
X117000000Y-98025000D03*
D10*
G04 #@! TO.N,+5V*
G04 #@! TO.C,C4*
G36*
X117474505Y-95401204D02*
X117498773Y-95404804D01*
X117522572Y-95410765D01*
X117545671Y-95419030D01*
X117567850Y-95429520D01*
X117588893Y-95442132D01*
X117608599Y-95456747D01*
X117626777Y-95473223D01*
X117643253Y-95491401D01*
X117657868Y-95511107D01*
X117670480Y-95532150D01*
X117680970Y-95554329D01*
X117689235Y-95577428D01*
X117695196Y-95601227D01*
X117698796Y-95625495D01*
X117700000Y-95649999D01*
X117700000Y-96300001D01*
X117698796Y-96324505D01*
X117695196Y-96348773D01*
X117689235Y-96372572D01*
X117680970Y-96395671D01*
X117670480Y-96417850D01*
X117657868Y-96438893D01*
X117643253Y-96458599D01*
X117626777Y-96476777D01*
X117608599Y-96493253D01*
X117588893Y-96507868D01*
X117567850Y-96520480D01*
X117545671Y-96530970D01*
X117522572Y-96539235D01*
X117498773Y-96545196D01*
X117474505Y-96548796D01*
X117450001Y-96550000D01*
X116549999Y-96550000D01*
X116525495Y-96548796D01*
X116501227Y-96545196D01*
X116477428Y-96539235D01*
X116454329Y-96530970D01*
X116432150Y-96520480D01*
X116411107Y-96507868D01*
X116391401Y-96493253D01*
X116373223Y-96476777D01*
X116356747Y-96458599D01*
X116342132Y-96438893D01*
X116329520Y-96417850D01*
X116319030Y-96395671D01*
X116310765Y-96372572D01*
X116304804Y-96348773D01*
X116301204Y-96324505D01*
X116300000Y-96300001D01*
X116300000Y-95649999D01*
X116301204Y-95625495D01*
X116304804Y-95601227D01*
X116310765Y-95577428D01*
X116319030Y-95554329D01*
X116329520Y-95532150D01*
X116342132Y-95511107D01*
X116356747Y-95491401D01*
X116373223Y-95473223D01*
X116391401Y-95456747D01*
X116411107Y-95442132D01*
X116432150Y-95429520D01*
X116454329Y-95419030D01*
X116477428Y-95410765D01*
X116501227Y-95404804D01*
X116525495Y-95401204D01*
X116549999Y-95400000D01*
X117450001Y-95400000D01*
X117474505Y-95401204D01*
X117474505Y-95401204D01*
G37*
D11*
G04 #@! TD*
G04 #@! TO.P,C4,1*
G04 #@! TO.N,+5V*
X117000000Y-95975000D03*
D10*
G04 #@! TO.N,+5V*
G04 #@! TO.C,C5*
G36*
X99574505Y-81551204D02*
X99598773Y-81554804D01*
X99622572Y-81560765D01*
X99645671Y-81569030D01*
X99667850Y-81579520D01*
X99688893Y-81592132D01*
X99708599Y-81606747D01*
X99726777Y-81623223D01*
X99743253Y-81641401D01*
X99757868Y-81661107D01*
X99770480Y-81682150D01*
X99780970Y-81704329D01*
X99789235Y-81727428D01*
X99795196Y-81751227D01*
X99798796Y-81775495D01*
X99800000Y-81799999D01*
X99800000Y-82700001D01*
X99798796Y-82724505D01*
X99795196Y-82748773D01*
X99789235Y-82772572D01*
X99780970Y-82795671D01*
X99770480Y-82817850D01*
X99757868Y-82838893D01*
X99743253Y-82858599D01*
X99726777Y-82876777D01*
X99708599Y-82893253D01*
X99688893Y-82907868D01*
X99667850Y-82920480D01*
X99645671Y-82930970D01*
X99622572Y-82939235D01*
X99598773Y-82945196D01*
X99574505Y-82948796D01*
X99550001Y-82950000D01*
X98899999Y-82950000D01*
X98875495Y-82948796D01*
X98851227Y-82945196D01*
X98827428Y-82939235D01*
X98804329Y-82930970D01*
X98782150Y-82920480D01*
X98761107Y-82907868D01*
X98741401Y-82893253D01*
X98723223Y-82876777D01*
X98706747Y-82858599D01*
X98692132Y-82838893D01*
X98679520Y-82817850D01*
X98669030Y-82795671D01*
X98660765Y-82772572D01*
X98654804Y-82748773D01*
X98651204Y-82724505D01*
X98650000Y-82700001D01*
X98650000Y-81799999D01*
X98651204Y-81775495D01*
X98654804Y-81751227D01*
X98660765Y-81727428D01*
X98669030Y-81704329D01*
X98679520Y-81682150D01*
X98692132Y-81661107D01*
X98706747Y-81641401D01*
X98723223Y-81623223D01*
X98741401Y-81606747D01*
X98761107Y-81592132D01*
X98782150Y-81579520D01*
X98804329Y-81569030D01*
X98827428Y-81560765D01*
X98851227Y-81554804D01*
X98875495Y-81551204D01*
X98899999Y-81550000D01*
X99550001Y-81550000D01*
X99574505Y-81551204D01*
X99574505Y-81551204D01*
G37*
D11*
G04 #@! TD*
G04 #@! TO.P,C5,1*
G04 #@! TO.N,+5V*
X99225000Y-82250000D03*
D10*
G04 #@! TO.N,GND*
G04 #@! TO.C,C5*
G36*
X101624505Y-81551204D02*
X101648773Y-81554804D01*
X101672572Y-81560765D01*
X101695671Y-81569030D01*
X101717850Y-81579520D01*
X101738893Y-81592132D01*
X101758599Y-81606747D01*
X101776777Y-81623223D01*
X101793253Y-81641401D01*
X101807868Y-81661107D01*
X101820480Y-81682150D01*
X101830970Y-81704329D01*
X101839235Y-81727428D01*
X101845196Y-81751227D01*
X101848796Y-81775495D01*
X101850000Y-81799999D01*
X101850000Y-82700001D01*
X101848796Y-82724505D01*
X101845196Y-82748773D01*
X101839235Y-82772572D01*
X101830970Y-82795671D01*
X101820480Y-82817850D01*
X101807868Y-82838893D01*
X101793253Y-82858599D01*
X101776777Y-82876777D01*
X101758599Y-82893253D01*
X101738893Y-82907868D01*
X101717850Y-82920480D01*
X101695671Y-82930970D01*
X101672572Y-82939235D01*
X101648773Y-82945196D01*
X101624505Y-82948796D01*
X101600001Y-82950000D01*
X100949999Y-82950000D01*
X100925495Y-82948796D01*
X100901227Y-82945196D01*
X100877428Y-82939235D01*
X100854329Y-82930970D01*
X100832150Y-82920480D01*
X100811107Y-82907868D01*
X100791401Y-82893253D01*
X100773223Y-82876777D01*
X100756747Y-82858599D01*
X100742132Y-82838893D01*
X100729520Y-82817850D01*
X100719030Y-82795671D01*
X100710765Y-82772572D01*
X100704804Y-82748773D01*
X100701204Y-82724505D01*
X100700000Y-82700001D01*
X100700000Y-81799999D01*
X100701204Y-81775495D01*
X100704804Y-81751227D01*
X100710765Y-81727428D01*
X100719030Y-81704329D01*
X100729520Y-81682150D01*
X100742132Y-81661107D01*
X100756747Y-81641401D01*
X100773223Y-81623223D01*
X100791401Y-81606747D01*
X100811107Y-81592132D01*
X100832150Y-81579520D01*
X100854329Y-81569030D01*
X100877428Y-81560765D01*
X100901227Y-81554804D01*
X100925495Y-81551204D01*
X100949999Y-81550000D01*
X101600001Y-81550000D01*
X101624505Y-81551204D01*
X101624505Y-81551204D01*
G37*
D11*
G04 #@! TD*
G04 #@! TO.P,C5,2*
G04 #@! TO.N,GND*
X101275000Y-82250000D03*
D10*
G04 #@! TO.N,GND*
G04 #@! TO.C,C6*
G36*
X96824505Y-103051204D02*
X96848773Y-103054804D01*
X96872572Y-103060765D01*
X96895671Y-103069030D01*
X96917850Y-103079520D01*
X96938893Y-103092132D01*
X96958599Y-103106747D01*
X96976777Y-103123223D01*
X96993253Y-103141401D01*
X97007868Y-103161107D01*
X97020480Y-103182150D01*
X97030970Y-103204329D01*
X97039235Y-103227428D01*
X97045196Y-103251227D01*
X97048796Y-103275495D01*
X97050000Y-103299999D01*
X97050000Y-104200001D01*
X97048796Y-104224505D01*
X97045196Y-104248773D01*
X97039235Y-104272572D01*
X97030970Y-104295671D01*
X97020480Y-104317850D01*
X97007868Y-104338893D01*
X96993253Y-104358599D01*
X96976777Y-104376777D01*
X96958599Y-104393253D01*
X96938893Y-104407868D01*
X96917850Y-104420480D01*
X96895671Y-104430970D01*
X96872572Y-104439235D01*
X96848773Y-104445196D01*
X96824505Y-104448796D01*
X96800001Y-104450000D01*
X96149999Y-104450000D01*
X96125495Y-104448796D01*
X96101227Y-104445196D01*
X96077428Y-104439235D01*
X96054329Y-104430970D01*
X96032150Y-104420480D01*
X96011107Y-104407868D01*
X95991401Y-104393253D01*
X95973223Y-104376777D01*
X95956747Y-104358599D01*
X95942132Y-104338893D01*
X95929520Y-104317850D01*
X95919030Y-104295671D01*
X95910765Y-104272572D01*
X95904804Y-104248773D01*
X95901204Y-104224505D01*
X95900000Y-104200001D01*
X95900000Y-103299999D01*
X95901204Y-103275495D01*
X95904804Y-103251227D01*
X95910765Y-103227428D01*
X95919030Y-103204329D01*
X95929520Y-103182150D01*
X95942132Y-103161107D01*
X95956747Y-103141401D01*
X95973223Y-103123223D01*
X95991401Y-103106747D01*
X96011107Y-103092132D01*
X96032150Y-103079520D01*
X96054329Y-103069030D01*
X96077428Y-103060765D01*
X96101227Y-103054804D01*
X96125495Y-103051204D01*
X96149999Y-103050000D01*
X96800001Y-103050000D01*
X96824505Y-103051204D01*
X96824505Y-103051204D01*
G37*
D11*
G04 #@! TD*
G04 #@! TO.P,C6,2*
G04 #@! TO.N,GND*
X96475000Y-103750000D03*
D10*
G04 #@! TO.N,+5V*
G04 #@! TO.C,C6*
G36*
X98874505Y-103051204D02*
X98898773Y-103054804D01*
X98922572Y-103060765D01*
X98945671Y-103069030D01*
X98967850Y-103079520D01*
X98988893Y-103092132D01*
X99008599Y-103106747D01*
X99026777Y-103123223D01*
X99043253Y-103141401D01*
X99057868Y-103161107D01*
X99070480Y-103182150D01*
X99080970Y-103204329D01*
X99089235Y-103227428D01*
X99095196Y-103251227D01*
X99098796Y-103275495D01*
X99100000Y-103299999D01*
X99100000Y-104200001D01*
X99098796Y-104224505D01*
X99095196Y-104248773D01*
X99089235Y-104272572D01*
X99080970Y-104295671D01*
X99070480Y-104317850D01*
X99057868Y-104338893D01*
X99043253Y-104358599D01*
X99026777Y-104376777D01*
X99008599Y-104393253D01*
X98988893Y-104407868D01*
X98967850Y-104420480D01*
X98945671Y-104430970D01*
X98922572Y-104439235D01*
X98898773Y-104445196D01*
X98874505Y-104448796D01*
X98850001Y-104450000D01*
X98199999Y-104450000D01*
X98175495Y-104448796D01*
X98151227Y-104445196D01*
X98127428Y-104439235D01*
X98104329Y-104430970D01*
X98082150Y-104420480D01*
X98061107Y-104407868D01*
X98041401Y-104393253D01*
X98023223Y-104376777D01*
X98006747Y-104358599D01*
X97992132Y-104338893D01*
X97979520Y-104317850D01*
X97969030Y-104295671D01*
X97960765Y-104272572D01*
X97954804Y-104248773D01*
X97951204Y-104224505D01*
X97950000Y-104200001D01*
X97950000Y-103299999D01*
X97951204Y-103275495D01*
X97954804Y-103251227D01*
X97960765Y-103227428D01*
X97969030Y-103204329D01*
X97979520Y-103182150D01*
X97992132Y-103161107D01*
X98006747Y-103141401D01*
X98023223Y-103123223D01*
X98041401Y-103106747D01*
X98061107Y-103092132D01*
X98082150Y-103079520D01*
X98104329Y-103069030D01*
X98127428Y-103060765D01*
X98151227Y-103054804D01*
X98175495Y-103051204D01*
X98199999Y-103050000D01*
X98850001Y-103050000D01*
X98874505Y-103051204D01*
X98874505Y-103051204D01*
G37*
D11*
G04 #@! TD*
G04 #@! TO.P,C6,1*
G04 #@! TO.N,+5V*
X98525000Y-103750000D03*
D14*
G04 #@! TO.P,J1,1*
G04 #@! TO.N,/SCL*
X93250000Y-105500000D03*
D15*
G04 #@! TO.P,J1,2*
G04 #@! TO.N,/MISO*
X90710000Y-105500000D03*
G04 #@! TO.P,J1,3*
G04 #@! TO.N,/SDA*
X88170000Y-105500000D03*
G04 #@! TO.P,J1,4*
G04 #@! TO.N,/~RESET*
X85630000Y-105500000D03*
G04 #@! TO.P,J1,5*
G04 #@! TO.N,GND*
X83090000Y-105500000D03*
G04 #@! TD*
D10*
G04 #@! TO.N,+5V*
G04 #@! TO.C,R1*
G36*
X86974505Y-99651204D02*
X86998773Y-99654804D01*
X87022572Y-99660765D01*
X87045671Y-99669030D01*
X87067850Y-99679520D01*
X87088893Y-99692132D01*
X87108599Y-99706747D01*
X87126777Y-99723223D01*
X87143253Y-99741401D01*
X87157868Y-99761107D01*
X87170480Y-99782150D01*
X87180970Y-99804329D01*
X87189235Y-99827428D01*
X87195196Y-99851227D01*
X87198796Y-99875495D01*
X87200000Y-99899999D01*
X87200000Y-100550001D01*
X87198796Y-100574505D01*
X87195196Y-100598773D01*
X87189235Y-100622572D01*
X87180970Y-100645671D01*
X87170480Y-100667850D01*
X87157868Y-100688893D01*
X87143253Y-100708599D01*
X87126777Y-100726777D01*
X87108599Y-100743253D01*
X87088893Y-100757868D01*
X87067850Y-100770480D01*
X87045671Y-100780970D01*
X87022572Y-100789235D01*
X86998773Y-100795196D01*
X86974505Y-100798796D01*
X86950001Y-100800000D01*
X86049999Y-100800000D01*
X86025495Y-100798796D01*
X86001227Y-100795196D01*
X85977428Y-100789235D01*
X85954329Y-100780970D01*
X85932150Y-100770480D01*
X85911107Y-100757868D01*
X85891401Y-100743253D01*
X85873223Y-100726777D01*
X85856747Y-100708599D01*
X85842132Y-100688893D01*
X85829520Y-100667850D01*
X85819030Y-100645671D01*
X85810765Y-100622572D01*
X85804804Y-100598773D01*
X85801204Y-100574505D01*
X85800000Y-100550001D01*
X85800000Y-99899999D01*
X85801204Y-99875495D01*
X85804804Y-99851227D01*
X85810765Y-99827428D01*
X85819030Y-99804329D01*
X85829520Y-99782150D01*
X85842132Y-99761107D01*
X85856747Y-99741401D01*
X85873223Y-99723223D01*
X85891401Y-99706747D01*
X85911107Y-99692132D01*
X85932150Y-99679520D01*
X85954329Y-99669030D01*
X85977428Y-99660765D01*
X86001227Y-99654804D01*
X86025495Y-99651204D01*
X86049999Y-99650000D01*
X86950001Y-99650000D01*
X86974505Y-99651204D01*
X86974505Y-99651204D01*
G37*
D11*
G04 #@! TD*
G04 #@! TO.P,R1,1*
G04 #@! TO.N,+5V*
X86500000Y-100225000D03*
D10*
G04 #@! TO.N,/SDA*
G04 #@! TO.C,R1*
G36*
X86974505Y-101701204D02*
X86998773Y-101704804D01*
X87022572Y-101710765D01*
X87045671Y-101719030D01*
X87067850Y-101729520D01*
X87088893Y-101742132D01*
X87108599Y-101756747D01*
X87126777Y-101773223D01*
X87143253Y-101791401D01*
X87157868Y-101811107D01*
X87170480Y-101832150D01*
X87180970Y-101854329D01*
X87189235Y-101877428D01*
X87195196Y-101901227D01*
X87198796Y-101925495D01*
X87200000Y-101949999D01*
X87200000Y-102600001D01*
X87198796Y-102624505D01*
X87195196Y-102648773D01*
X87189235Y-102672572D01*
X87180970Y-102695671D01*
X87170480Y-102717850D01*
X87157868Y-102738893D01*
X87143253Y-102758599D01*
X87126777Y-102776777D01*
X87108599Y-102793253D01*
X87088893Y-102807868D01*
X87067850Y-102820480D01*
X87045671Y-102830970D01*
X87022572Y-102839235D01*
X86998773Y-102845196D01*
X86974505Y-102848796D01*
X86950001Y-102850000D01*
X86049999Y-102850000D01*
X86025495Y-102848796D01*
X86001227Y-102845196D01*
X85977428Y-102839235D01*
X85954329Y-102830970D01*
X85932150Y-102820480D01*
X85911107Y-102807868D01*
X85891401Y-102793253D01*
X85873223Y-102776777D01*
X85856747Y-102758599D01*
X85842132Y-102738893D01*
X85829520Y-102717850D01*
X85819030Y-102695671D01*
X85810765Y-102672572D01*
X85804804Y-102648773D01*
X85801204Y-102624505D01*
X85800000Y-102600001D01*
X85800000Y-101949999D01*
X85801204Y-101925495D01*
X85804804Y-101901227D01*
X85810765Y-101877428D01*
X85819030Y-101854329D01*
X85829520Y-101832150D01*
X85842132Y-101811107D01*
X85856747Y-101791401D01*
X85873223Y-101773223D01*
X85891401Y-101756747D01*
X85911107Y-101742132D01*
X85932150Y-101729520D01*
X85954329Y-101719030D01*
X85977428Y-101710765D01*
X86001227Y-101704804D01*
X86025495Y-101701204D01*
X86049999Y-101700000D01*
X86950001Y-101700000D01*
X86974505Y-101701204D01*
X86974505Y-101701204D01*
G37*
D11*
G04 #@! TD*
G04 #@! TO.P,R1,2*
G04 #@! TO.N,/SDA*
X86500000Y-102275000D03*
D10*
G04 #@! TO.N,/SCL*
G04 #@! TO.C,R2*
G36*
X93724505Y-101951204D02*
X93748773Y-101954804D01*
X93772572Y-101960765D01*
X93795671Y-101969030D01*
X93817850Y-101979520D01*
X93838893Y-101992132D01*
X93858599Y-102006747D01*
X93876777Y-102023223D01*
X93893253Y-102041401D01*
X93907868Y-102061107D01*
X93920480Y-102082150D01*
X93930970Y-102104329D01*
X93939235Y-102127428D01*
X93945196Y-102151227D01*
X93948796Y-102175495D01*
X93950000Y-102199999D01*
X93950000Y-102850001D01*
X93948796Y-102874505D01*
X93945196Y-102898773D01*
X93939235Y-102922572D01*
X93930970Y-102945671D01*
X93920480Y-102967850D01*
X93907868Y-102988893D01*
X93893253Y-103008599D01*
X93876777Y-103026777D01*
X93858599Y-103043253D01*
X93838893Y-103057868D01*
X93817850Y-103070480D01*
X93795671Y-103080970D01*
X93772572Y-103089235D01*
X93748773Y-103095196D01*
X93724505Y-103098796D01*
X93700001Y-103100000D01*
X92799999Y-103100000D01*
X92775495Y-103098796D01*
X92751227Y-103095196D01*
X92727428Y-103089235D01*
X92704329Y-103080970D01*
X92682150Y-103070480D01*
X92661107Y-103057868D01*
X92641401Y-103043253D01*
X92623223Y-103026777D01*
X92606747Y-103008599D01*
X92592132Y-102988893D01*
X92579520Y-102967850D01*
X92569030Y-102945671D01*
X92560765Y-102922572D01*
X92554804Y-102898773D01*
X92551204Y-102874505D01*
X92550000Y-102850001D01*
X92550000Y-102199999D01*
X92551204Y-102175495D01*
X92554804Y-102151227D01*
X92560765Y-102127428D01*
X92569030Y-102104329D01*
X92579520Y-102082150D01*
X92592132Y-102061107D01*
X92606747Y-102041401D01*
X92623223Y-102023223D01*
X92641401Y-102006747D01*
X92661107Y-101992132D01*
X92682150Y-101979520D01*
X92704329Y-101969030D01*
X92727428Y-101960765D01*
X92751227Y-101954804D01*
X92775495Y-101951204D01*
X92799999Y-101950000D01*
X93700001Y-101950000D01*
X93724505Y-101951204D01*
X93724505Y-101951204D01*
G37*
D11*
G04 #@! TD*
G04 #@! TO.P,R2,2*
G04 #@! TO.N,/SCL*
X93250000Y-102525000D03*
D10*
G04 #@! TO.N,+5V*
G04 #@! TO.C,R2*
G36*
X93724505Y-99901204D02*
X93748773Y-99904804D01*
X93772572Y-99910765D01*
X93795671Y-99919030D01*
X93817850Y-99929520D01*
X93838893Y-99942132D01*
X93858599Y-99956747D01*
X93876777Y-99973223D01*
X93893253Y-99991401D01*
X93907868Y-100011107D01*
X93920480Y-100032150D01*
X93930970Y-100054329D01*
X93939235Y-100077428D01*
X93945196Y-100101227D01*
X93948796Y-100125495D01*
X93950000Y-100149999D01*
X93950000Y-100800001D01*
X93948796Y-100824505D01*
X93945196Y-100848773D01*
X93939235Y-100872572D01*
X93930970Y-100895671D01*
X93920480Y-100917850D01*
X93907868Y-100938893D01*
X93893253Y-100958599D01*
X93876777Y-100976777D01*
X93858599Y-100993253D01*
X93838893Y-101007868D01*
X93817850Y-101020480D01*
X93795671Y-101030970D01*
X93772572Y-101039235D01*
X93748773Y-101045196D01*
X93724505Y-101048796D01*
X93700001Y-101050000D01*
X92799999Y-101050000D01*
X92775495Y-101048796D01*
X92751227Y-101045196D01*
X92727428Y-101039235D01*
X92704329Y-101030970D01*
X92682150Y-101020480D01*
X92661107Y-101007868D01*
X92641401Y-100993253D01*
X92623223Y-100976777D01*
X92606747Y-100958599D01*
X92592132Y-100938893D01*
X92579520Y-100917850D01*
X92569030Y-100895671D01*
X92560765Y-100872572D01*
X92554804Y-100848773D01*
X92551204Y-100824505D01*
X92550000Y-100800001D01*
X92550000Y-100149999D01*
X92551204Y-100125495D01*
X92554804Y-100101227D01*
X92560765Y-100077428D01*
X92569030Y-100054329D01*
X92579520Y-100032150D01*
X92592132Y-100011107D01*
X92606747Y-99991401D01*
X92623223Y-99973223D01*
X92641401Y-99956747D01*
X92661107Y-99942132D01*
X92682150Y-99929520D01*
X92704329Y-99919030D01*
X92727428Y-99910765D01*
X92751227Y-99904804D01*
X92775495Y-99901204D01*
X92799999Y-99900000D01*
X93700001Y-99900000D01*
X93724505Y-99901204D01*
X93724505Y-99901204D01*
G37*
D11*
G04 #@! TD*
G04 #@! TO.P,R2,1*
G04 #@! TO.N,+5V*
X93250000Y-100475000D03*
D16*
G04 #@! TO.P,U1,8*
G04 #@! TO.N,+5V*
X85350000Y-88095000D03*
G04 #@! TO.P,U1,7*
G04 #@! TO.N,/SCL*
X85350000Y-89365000D03*
G04 #@! TO.P,U1,6*
G04 #@! TO.N,/MISO*
X85350000Y-90635000D03*
G04 #@! TO.P,U1,5*
G04 #@! TO.N,/SDA*
X85350000Y-91905000D03*
G04 #@! TO.P,U1,4*
G04 #@! TO.N,GND*
X92650000Y-91905000D03*
G04 #@! TO.P,U1,3*
G04 #@! TO.N,/SQW*
X92650000Y-90635000D03*
G04 #@! TO.P,U1,2*
G04 #@! TO.N,Net-(U1-Pad2)*
X92650000Y-89365000D03*
G04 #@! TO.P,U1,1*
G04 #@! TO.N,/~RESET*
X92650000Y-88095000D03*
G04 #@! TD*
D17*
G04 #@! TO.P,U2,1*
G04 #@! TO.N,GND*
X108800000Y-92280000D03*
G04 #@! TO.P,U2,3*
G04 #@! TO.N,+6V*
X108800000Y-87720000D03*
D18*
G04 #@! TO.P,U2,2*
G04 #@! TO.N,+5V*
X115100000Y-90000000D03*
G04 #@! TD*
D19*
G04 #@! TO.P,U4,1*
G04 #@! TO.N,Net-(U4-Pad1)*
X99155000Y-89700000D03*
G04 #@! TO.P,U4,2*
G04 #@! TO.N,Net-(U4-Pad2)*
X97885000Y-89700000D03*
G04 #@! TO.P,U4,3*
G04 #@! TO.N,+BATT*
X96615000Y-89700000D03*
G04 #@! TO.P,U4,4*
G04 #@! TO.N,GND*
X95345000Y-89700000D03*
G04 #@! TO.P,U4,5*
G04 #@! TO.N,/SDA*
X95345000Y-84300000D03*
G04 #@! TO.P,U4,6*
G04 #@! TO.N,/SCL*
X96615000Y-84300000D03*
G04 #@! TO.P,U4,7*
G04 #@! TO.N,/SQW*
X97885000Y-84300000D03*
G04 #@! TO.P,U4,8*
G04 #@! TO.N,+5V*
X99155000Y-84300000D03*
G04 #@! TD*
D16*
G04 #@! TO.P,U5,1*
G04 #@! TO.N,GND*
X108150000Y-103845000D03*
G04 #@! TO.P,U5,2*
X108150000Y-105115000D03*
G04 #@! TO.P,U5,3*
X108150000Y-106385000D03*
G04 #@! TO.P,U5,4*
X108150000Y-107655000D03*
G04 #@! TO.P,U5,5*
G04 #@! TO.N,/SDA*
X100850000Y-107655000D03*
G04 #@! TO.P,U5,6*
G04 #@! TO.N,/SCL*
X100850000Y-106385000D03*
G04 #@! TO.P,U5,7*
G04 #@! TO.N,GND*
X100850000Y-105115000D03*
G04 #@! TO.P,U5,8*
G04 #@! TO.N,+5V*
X100850000Y-103845000D03*
G04 #@! TD*
D20*
G04 #@! TO.P,Y1,1*
G04 #@! TO.N,Net-(U4-Pad1)*
X100250000Y-91500000D03*
G04 #@! TO.P,Y1,2*
G04 #@! TO.N,Net-(U4-Pad2)*
X98350000Y-91500000D03*
G04 #@! TD*
D21*
G04 #@! TO.N,+BATT*
X97750000Y-87000000D03*
X95250000Y-96000000D03*
D22*
G04 #@! TO.N,GND*
X90000000Y-87000000D03*
X89599987Y-93000000D03*
D21*
X92500000Y-93000000D03*
D22*
G04 #@! TO.N,+5V*
X115500000Y-86000000D03*
X115500000Y-94000000D03*
D21*
X117750000Y-106000000D03*
X101000000Y-103000000D03*
X86000000Y-86250000D03*
X98000000Y-82250000D03*
X101500000Y-91000000D03*
X93250000Y-99250000D03*
X86500000Y-99000000D03*
D23*
G04 #@! TO.N,/~RESET*
X93994989Y-88700901D03*
G04 #@! TD*
D24*
G04 #@! TO.N,+BATT*
X91150000Y-82250000D02*
X90000000Y-83400000D01*
X92975000Y-82250000D02*
X91150000Y-82250000D01*
X96615000Y-88135000D02*
X97750000Y-87000000D01*
X96615000Y-89700000D02*
X96615000Y-88135000D01*
X96615000Y-91860000D02*
X96500000Y-91975000D01*
X96615000Y-89700000D02*
X96615000Y-91860000D01*
X96500000Y-91975000D02*
X95250000Y-93225000D01*
X95250000Y-93225000D02*
X95250000Y-94750000D01*
X95250000Y-94750000D02*
X95250000Y-96000000D01*
D25*
G04 #@! TO.N,+6V*
X108800000Y-84600000D02*
X110000000Y-83400000D01*
X108800000Y-87720000D02*
X108800000Y-84600000D01*
D24*
X108555000Y-87475000D02*
X108800000Y-87720000D01*
X106000000Y-87475000D02*
X108555000Y-87475000D01*
D25*
G04 #@! TO.N,+5V*
X115100000Y-90000000D02*
X115100000Y-86400000D01*
X115100000Y-86400000D02*
X115500000Y-86000000D01*
X115100000Y-90000000D02*
X115100000Y-93600000D01*
X115100000Y-93600000D02*
X115500000Y-94000000D01*
D24*
X115500000Y-94475000D02*
X117000000Y-95975000D01*
X115500000Y-94000000D02*
X115500000Y-94475000D01*
X116525000Y-106000000D02*
X117750000Y-106000000D01*
X116525000Y-104230000D02*
X116450000Y-104155000D01*
X116525000Y-106000000D02*
X116525000Y-104230000D01*
X98620000Y-103845000D02*
X98525000Y-103750000D01*
X100850000Y-103845000D02*
X98620000Y-103845000D01*
X100850000Y-103845000D02*
X100850000Y-103150000D01*
X100850000Y-103150000D02*
X101000000Y-103000000D01*
X85350000Y-86575000D02*
X85025000Y-86250000D01*
X85350000Y-88095000D02*
X85350000Y-86575000D01*
X85025000Y-86250000D02*
X86000000Y-86250000D01*
X99155000Y-82320000D02*
X99225000Y-82250000D01*
X99155000Y-84300000D02*
X99155000Y-82320000D01*
X99225000Y-82250000D02*
X98000000Y-82250000D01*
X101500000Y-89775000D02*
X101500000Y-91000000D01*
X93250000Y-100475000D02*
X93250000Y-99250000D01*
X86500000Y-100225000D02*
X86500000Y-99000000D01*
D26*
G04 #@! TO.N,/SCL*
X93250000Y-105500000D02*
X93250000Y-106600000D01*
X96615000Y-84775000D02*
X96615000Y-84300000D01*
X93945001Y-87444999D02*
X96615000Y-84775000D01*
X91539999Y-87444999D02*
X93945001Y-87444999D01*
X89619998Y-89365000D02*
X91539999Y-87444999D01*
X93250000Y-102525000D02*
X93250000Y-105500000D01*
X99750000Y-106385000D02*
X100850000Y-106385000D01*
X99209990Y-106925010D02*
X99750000Y-106385000D01*
X93575010Y-106925010D02*
X99209990Y-106925010D01*
X93250000Y-106600000D02*
X93575010Y-106925010D01*
X110025000Y-102335000D02*
X110575000Y-102885000D01*
X110575000Y-102885000D02*
X111050000Y-102885000D01*
X106000000Y-102335000D02*
X110025000Y-102335000D01*
X101950000Y-106385000D02*
X106000000Y-102335000D01*
X100850000Y-106385000D02*
X101950000Y-106385000D01*
X85350000Y-89365000D02*
X88000000Y-89365000D01*
X88000000Y-89365000D02*
X89619998Y-89365000D01*
X93250000Y-102525000D02*
X88174999Y-97449999D01*
X88174999Y-97449999D02*
X88174999Y-89539999D01*
X88174999Y-89539999D02*
X88000000Y-89365000D01*
G04 #@! TO.N,/MISO*
X90710000Y-100710000D02*
X90710000Y-105500000D01*
X87525010Y-97525010D02*
X90710000Y-100710000D01*
X87525010Y-91710010D02*
X87525010Y-97525010D01*
X85350000Y-90635000D02*
X86450000Y-90635000D01*
X86450000Y-90635000D02*
X87525010Y-91710010D01*
G04 #@! TO.N,/SDA*
X88000000Y-105330000D02*
X88170000Y-105500000D01*
X85350000Y-101125000D02*
X86500000Y-102275000D01*
X85350000Y-91905000D02*
X85350000Y-101125000D01*
X86500000Y-103830000D02*
X88170000Y-105500000D01*
X86500000Y-102275000D02*
X86500000Y-103830000D01*
X110575000Y-104155000D02*
X111050000Y-104155000D01*
X109614999Y-103194999D02*
X110575000Y-104155000D01*
X102579998Y-107655000D02*
X107039999Y-103194999D01*
X100850000Y-107655000D02*
X102579998Y-107655000D01*
X107039999Y-103194999D02*
X109614999Y-103194999D01*
X92655000Y-107655000D02*
X100850000Y-107655000D01*
X90325000Y-107655000D02*
X92655000Y-107655000D01*
X88170000Y-105500000D02*
X90325000Y-107655000D01*
X84825000Y-91905000D02*
X84000000Y-91080000D01*
X85350000Y-91905000D02*
X84825000Y-91905000D01*
X84000000Y-91080000D02*
X84000000Y-85686810D01*
X84000000Y-85686810D02*
X84461820Y-85224990D01*
X95345000Y-84300000D02*
X95345000Y-84905000D01*
X95345000Y-84905000D02*
X94750000Y-85500000D01*
X85588180Y-85224990D02*
X84461820Y-85224990D01*
X85863190Y-85500000D02*
X85588180Y-85224990D01*
X94750000Y-85500000D02*
X85863190Y-85500000D01*
G04 #@! TO.N,/~RESET*
X92650000Y-88095000D02*
X93389088Y-88095000D01*
X93389088Y-88095000D02*
X93994989Y-88700901D01*
G04 #@! TO.N,/SQW*
X97885000Y-84775000D02*
X97885000Y-84300000D01*
X100211628Y-87101628D02*
X97885000Y-84775000D01*
X100876628Y-87101628D02*
X100211628Y-87101628D01*
X101500000Y-87725000D02*
X100876628Y-87101628D01*
X94719999Y-89090001D02*
X94719999Y-87940001D01*
X94719999Y-87940001D02*
X97885000Y-84775000D01*
X93175000Y-90635000D02*
X94719999Y-89090001D01*
X92650000Y-90635000D02*
X93175000Y-90635000D01*
G04 #@! TO.N,Net-(U4-Pad1)*
X99155000Y-90405000D02*
X100250000Y-91500000D01*
X99155000Y-89700000D02*
X99155000Y-90405000D01*
G04 #@! TO.N,Net-(U4-Pad2)*
X97885000Y-91035000D02*
X98350000Y-91500000D01*
X97885000Y-89700000D02*
X97885000Y-91035000D01*
G04 #@! TD*
D27*
G04 #@! TO.N,GND*
G36*
X119290000Y-109290000D02*
X80710000Y-109290000D01*
X80710000Y-105856892D01*
X81648514Y-105856892D01*
X81894817Y-106381358D01*
X82323076Y-106771645D01*
X82733110Y-106941476D01*
X82963000Y-106820155D01*
X82963000Y-105627000D01*
X81769181Y-105627000D01*
X81648514Y-105856892D01*
X80710000Y-105856892D01*
X80710000Y-105143108D01*
X81648514Y-105143108D01*
X81769181Y-105373000D01*
X82963000Y-105373000D01*
X82963000Y-104179845D01*
X82733110Y-104058524D01*
X82323076Y-104228355D01*
X81894817Y-104618642D01*
X81648514Y-105143108D01*
X80710000Y-105143108D01*
X80710000Y-86535750D01*
X81765000Y-86535750D01*
X81765000Y-87076310D01*
X81861673Y-87309699D01*
X82040302Y-87488327D01*
X82273691Y-87585000D01*
X82689250Y-87585000D01*
X82848000Y-87426250D01*
X82848000Y-86377000D01*
X81923750Y-86377000D01*
X81765000Y-86535750D01*
X80710000Y-86535750D01*
X80710000Y-85423690D01*
X81765000Y-85423690D01*
X81765000Y-85964250D01*
X81923750Y-86123000D01*
X82848000Y-86123000D01*
X82848000Y-85073750D01*
X83102000Y-85073750D01*
X83102000Y-86123000D01*
X83122000Y-86123000D01*
X83122000Y-86377000D01*
X83102000Y-86377000D01*
X83102000Y-87426250D01*
X83240001Y-87564251D01*
X83240000Y-91005153D01*
X83225112Y-91080000D01*
X83240000Y-91154847D01*
X83240000Y-91154851D01*
X83284096Y-91376536D01*
X83452071Y-91627929D01*
X83515530Y-91670331D01*
X83852560Y-92007361D01*
X83852560Y-92230000D01*
X83901843Y-92477765D01*
X84042191Y-92687809D01*
X84252235Y-92828157D01*
X84500000Y-92877440D01*
X84590000Y-92877440D01*
X84590001Y-101050148D01*
X84575112Y-101125000D01*
X84634097Y-101421537D01*
X84730233Y-101565414D01*
X84802072Y-101672929D01*
X84865528Y-101715329D01*
X85152560Y-102002361D01*
X85152560Y-102600001D01*
X85220873Y-102943436D01*
X85415414Y-103234586D01*
X85706564Y-103429127D01*
X85740001Y-103435778D01*
X85740001Y-103755149D01*
X85725112Y-103830000D01*
X85740001Y-103904852D01*
X85761911Y-104015000D01*
X85483744Y-104015000D01*
X85050582Y-104101161D01*
X84559375Y-104429375D01*
X84346157Y-104748478D01*
X84285183Y-104618642D01*
X83856924Y-104228355D01*
X83446890Y-104058524D01*
X83217000Y-104179845D01*
X83217000Y-105373000D01*
X83237000Y-105373000D01*
X83237000Y-105627000D01*
X83217000Y-105627000D01*
X83217000Y-106820155D01*
X83446890Y-106941476D01*
X83856924Y-106771645D01*
X84285183Y-106381358D01*
X84346157Y-106251522D01*
X84559375Y-106570625D01*
X85050582Y-106898839D01*
X85483744Y-106985000D01*
X85776256Y-106985000D01*
X86209418Y-106898839D01*
X86700625Y-106570625D01*
X86900000Y-106272239D01*
X87099375Y-106570625D01*
X87590582Y-106898839D01*
X88023744Y-106985000D01*
X88316256Y-106985000D01*
X88536408Y-106941209D01*
X89734671Y-108139473D01*
X89777071Y-108202929D01*
X90028463Y-108370904D01*
X90250148Y-108415000D01*
X90250152Y-108415000D01*
X90324999Y-108429888D01*
X90399846Y-108415000D01*
X99526950Y-108415000D01*
X99542191Y-108437809D01*
X99752235Y-108578157D01*
X100000000Y-108627440D01*
X101700000Y-108627440D01*
X101947765Y-108578157D01*
X102157809Y-108437809D01*
X102173050Y-108415000D01*
X102505151Y-108415000D01*
X102579998Y-108429888D01*
X102654845Y-108415000D01*
X102654850Y-108415000D01*
X102876535Y-108370904D01*
X103127927Y-108202929D01*
X103170329Y-108139470D01*
X103369049Y-107940750D01*
X106665000Y-107940750D01*
X106665000Y-108106310D01*
X106761673Y-108339699D01*
X106940302Y-108518327D01*
X107173691Y-108615000D01*
X107864250Y-108615000D01*
X108023000Y-108456250D01*
X108023000Y-107782000D01*
X108277000Y-107782000D01*
X108277000Y-108456250D01*
X108435750Y-108615000D01*
X109126309Y-108615000D01*
X109359698Y-108518327D01*
X109538327Y-108339699D01*
X109635000Y-108106310D01*
X109635000Y-107940750D01*
X109476250Y-107782000D01*
X108277000Y-107782000D01*
X108023000Y-107782000D01*
X106823750Y-107782000D01*
X106665000Y-107940750D01*
X103369049Y-107940750D01*
X104639049Y-106670750D01*
X106665000Y-106670750D01*
X106665000Y-106836310D01*
X106741087Y-107020000D01*
X106665000Y-107203690D01*
X106665000Y-107369250D01*
X106823750Y-107528000D01*
X108023000Y-107528000D01*
X108023000Y-106512000D01*
X108277000Y-106512000D01*
X108277000Y-107528000D01*
X109476250Y-107528000D01*
X109635000Y-107369250D01*
X109635000Y-107203690D01*
X109558913Y-107020000D01*
X109635000Y-106836310D01*
X109635000Y-106670750D01*
X109476250Y-106512000D01*
X108277000Y-106512000D01*
X108023000Y-106512000D01*
X106823750Y-106512000D01*
X106665000Y-106670750D01*
X104639049Y-106670750D01*
X105024049Y-106285750D01*
X113265000Y-106285750D01*
X113265000Y-106826310D01*
X113361673Y-107059699D01*
X113540302Y-107238327D01*
X113773691Y-107335000D01*
X114189250Y-107335000D01*
X114348000Y-107176250D01*
X114348000Y-106127000D01*
X113423750Y-106127000D01*
X113265000Y-106285750D01*
X105024049Y-106285750D01*
X105909049Y-105400750D01*
X106665000Y-105400750D01*
X106665000Y-105566310D01*
X106741087Y-105750000D01*
X106665000Y-105933690D01*
X106665000Y-106099250D01*
X106823750Y-106258000D01*
X108023000Y-106258000D01*
X108023000Y-105242000D01*
X108277000Y-105242000D01*
X108277000Y-106258000D01*
X109476250Y-106258000D01*
X109635000Y-106099250D01*
X109635000Y-105933690D01*
X109558913Y-105750000D01*
X109635000Y-105566310D01*
X109635000Y-105400750D01*
X109476250Y-105242000D01*
X108277000Y-105242000D01*
X108023000Y-105242000D01*
X106823750Y-105242000D01*
X106665000Y-105400750D01*
X105909049Y-105400750D01*
X106136109Y-105173690D01*
X113265000Y-105173690D01*
X113265000Y-105714250D01*
X113423750Y-105873000D01*
X114348000Y-105873000D01*
X114348000Y-104823750D01*
X114602000Y-104823750D01*
X114602000Y-105873000D01*
X114622000Y-105873000D01*
X114622000Y-106127000D01*
X114602000Y-106127000D01*
X114602000Y-107176250D01*
X114760750Y-107335000D01*
X115176309Y-107335000D01*
X115409698Y-107238327D01*
X115564623Y-107083403D01*
X115565414Y-107084586D01*
X115856564Y-107279127D01*
X116199999Y-107347440D01*
X116850001Y-107347440D01*
X117193436Y-107279127D01*
X117484586Y-107084586D01*
X117523443Y-107026433D01*
X117544126Y-107035000D01*
X117955874Y-107035000D01*
X118336280Y-106877431D01*
X118627431Y-106586280D01*
X118785000Y-106205874D01*
X118785000Y-105794126D01*
X118627431Y-105413720D01*
X118336280Y-105122569D01*
X117955874Y-104965000D01*
X117604700Y-104965000D01*
X117682809Y-104912809D01*
X117823157Y-104702765D01*
X117872440Y-104455000D01*
X117872440Y-103855000D01*
X117823157Y-103607235D01*
X117770232Y-103528028D01*
X117860000Y-103311310D01*
X117860000Y-103170750D01*
X117701250Y-103012000D01*
X116577000Y-103012000D01*
X116577000Y-103032000D01*
X116323000Y-103032000D01*
X116323000Y-103012000D01*
X115198750Y-103012000D01*
X115040000Y-103170750D01*
X115040000Y-103311310D01*
X115129768Y-103528028D01*
X115076843Y-103607235D01*
X115027560Y-103855000D01*
X115027560Y-104455000D01*
X115069331Y-104665000D01*
X114760750Y-104665000D01*
X114602000Y-104823750D01*
X114348000Y-104823750D01*
X114189250Y-104665000D01*
X113773691Y-104665000D01*
X113540302Y-104761673D01*
X113361673Y-104940301D01*
X113265000Y-105173690D01*
X106136109Y-105173690D01*
X106678357Y-104631442D01*
X106665000Y-104663690D01*
X106665000Y-104829250D01*
X106823750Y-104988000D01*
X108023000Y-104988000D01*
X108023000Y-103972000D01*
X108003000Y-103972000D01*
X108003000Y-103954999D01*
X108297000Y-103954999D01*
X108297000Y-103972000D01*
X108277000Y-103972000D01*
X108277000Y-104988000D01*
X109476250Y-104988000D01*
X109635000Y-104829250D01*
X109635000Y-104663690D01*
X109558913Y-104480000D01*
X109627560Y-104314272D01*
X109627560Y-104455000D01*
X109676843Y-104702765D01*
X109817191Y-104912809D01*
X110027235Y-105053157D01*
X110275000Y-105102440D01*
X111825000Y-105102440D01*
X112072765Y-105053157D01*
X112282809Y-104912809D01*
X112423157Y-104702765D01*
X112472440Y-104455000D01*
X112472440Y-103855000D01*
X112423157Y-103607235D01*
X112364868Y-103520000D01*
X112423157Y-103432765D01*
X112472440Y-103185000D01*
X112472440Y-102585000D01*
X112423157Y-102337235D01*
X112364868Y-102250000D01*
X112423157Y-102162765D01*
X112472440Y-101915000D01*
X112472440Y-101900750D01*
X115040000Y-101900750D01*
X115040000Y-102041310D01*
X115126442Y-102250000D01*
X115040000Y-102458690D01*
X115040000Y-102599250D01*
X115198750Y-102758000D01*
X116323000Y-102758000D01*
X116323000Y-101742000D01*
X116577000Y-101742000D01*
X116577000Y-102758000D01*
X117701250Y-102758000D01*
X117860000Y-102599250D01*
X117860000Y-102458690D01*
X117773558Y-102250000D01*
X117860000Y-102041310D01*
X117860000Y-101900750D01*
X117701250Y-101742000D01*
X116577000Y-101742000D01*
X116323000Y-101742000D01*
X115198750Y-101742000D01*
X115040000Y-101900750D01*
X112472440Y-101900750D01*
X112472440Y-101315000D01*
X112423157Y-101067235D01*
X112370232Y-100988028D01*
X112460000Y-100771310D01*
X112460000Y-100630750D01*
X115040000Y-100630750D01*
X115040000Y-100771310D01*
X115126442Y-100980000D01*
X115040000Y-101188690D01*
X115040000Y-101329250D01*
X115198750Y-101488000D01*
X116323000Y-101488000D01*
X116323000Y-100472000D01*
X116577000Y-100472000D01*
X116577000Y-101488000D01*
X117701250Y-101488000D01*
X117860000Y-101329250D01*
X117860000Y-101188690D01*
X117773558Y-100980000D01*
X117860000Y-100771310D01*
X117860000Y-100630750D01*
X117701250Y-100472000D01*
X116577000Y-100472000D01*
X116323000Y-100472000D01*
X115198750Y-100472000D01*
X115040000Y-100630750D01*
X112460000Y-100630750D01*
X112301250Y-100472000D01*
X111177000Y-100472000D01*
X111177000Y-100492000D01*
X110923000Y-100492000D01*
X110923000Y-100472000D01*
X109798750Y-100472000D01*
X109640000Y-100630750D01*
X109640000Y-100771310D01*
X109729768Y-100988028D01*
X109676843Y-101067235D01*
X109627560Y-101315000D01*
X109627560Y-101575000D01*
X106074847Y-101575000D01*
X106000000Y-101560112D01*
X105925153Y-101575000D01*
X105925148Y-101575000D01*
X105703463Y-101619096D01*
X105452071Y-101787071D01*
X105409671Y-101850527D01*
X102272201Y-104987998D01*
X102176252Y-104987998D01*
X102335000Y-104829250D01*
X102335000Y-104663690D01*
X102258017Y-104477838D01*
X102298157Y-104417765D01*
X102347440Y-104170000D01*
X102347440Y-103520000D01*
X102298157Y-103272235D01*
X102157809Y-103062191D01*
X102035000Y-102980132D01*
X102035000Y-102794126D01*
X101877431Y-102413720D01*
X101586280Y-102122569D01*
X101205874Y-101965000D01*
X100794126Y-101965000D01*
X100413720Y-102122569D01*
X100122569Y-102413720D01*
X99965000Y-102794126D01*
X99965000Y-102879522D01*
X99752235Y-102921843D01*
X99695129Y-102960000D01*
X99679810Y-102960000D01*
X99679127Y-102956564D01*
X99484586Y-102665414D01*
X99193436Y-102470873D01*
X98850001Y-102402560D01*
X98199999Y-102402560D01*
X97856564Y-102470873D01*
X97565414Y-102665414D01*
X97564623Y-102666597D01*
X97409698Y-102511673D01*
X97176309Y-102415000D01*
X96760750Y-102415000D01*
X96602000Y-102573750D01*
X96602000Y-103623000D01*
X96622000Y-103623000D01*
X96622000Y-103877000D01*
X96602000Y-103877000D01*
X96602000Y-104926250D01*
X96760750Y-105085000D01*
X97176309Y-105085000D01*
X97409698Y-104988327D01*
X97564623Y-104833403D01*
X97565414Y-104834586D01*
X97856564Y-105029127D01*
X98199999Y-105097440D01*
X98850001Y-105097440D01*
X99193436Y-105029127D01*
X99416098Y-104880348D01*
X99523750Y-104988000D01*
X100723000Y-104988000D01*
X100723000Y-104968000D01*
X100977000Y-104968000D01*
X100977000Y-104988000D01*
X100997000Y-104988000D01*
X100997000Y-105242000D01*
X100977000Y-105242000D01*
X100977000Y-105262000D01*
X100723000Y-105262000D01*
X100723000Y-105242000D01*
X99523750Y-105242000D01*
X99365000Y-105400750D01*
X99365000Y-105566310D01*
X99417523Y-105693111D01*
X99390902Y-105710898D01*
X99265526Y-105794671D01*
X99265524Y-105794673D01*
X99202071Y-105837071D01*
X99159672Y-105900525D01*
X98895188Y-106165010D01*
X94747440Y-106165010D01*
X94747440Y-104650000D01*
X94698157Y-104402235D01*
X94557809Y-104192191D01*
X94347765Y-104051843D01*
X94266860Y-104035750D01*
X95265000Y-104035750D01*
X95265000Y-104576310D01*
X95361673Y-104809699D01*
X95540302Y-104988327D01*
X95773691Y-105085000D01*
X96189250Y-105085000D01*
X96348000Y-104926250D01*
X96348000Y-103877000D01*
X95423750Y-103877000D01*
X95265000Y-104035750D01*
X94266860Y-104035750D01*
X94100000Y-104002560D01*
X94010000Y-104002560D01*
X94010000Y-103685778D01*
X94043436Y-103679127D01*
X94334586Y-103484586D01*
X94529127Y-103193436D01*
X94582782Y-102923690D01*
X95265000Y-102923690D01*
X95265000Y-103464250D01*
X95423750Y-103623000D01*
X96348000Y-103623000D01*
X96348000Y-102573750D01*
X96189250Y-102415000D01*
X95773691Y-102415000D01*
X95540302Y-102511673D01*
X95361673Y-102690301D01*
X95265000Y-102923690D01*
X94582782Y-102923690D01*
X94597440Y-102850001D01*
X94597440Y-102199999D01*
X94529127Y-101856564D01*
X94334586Y-101565414D01*
X94236687Y-101500000D01*
X94334586Y-101434586D01*
X94529127Y-101143436D01*
X94597440Y-100800001D01*
X94597440Y-100149999D01*
X94551431Y-99918690D01*
X109640000Y-99918690D01*
X109640000Y-100059250D01*
X109798750Y-100218000D01*
X110923000Y-100218000D01*
X110923000Y-99568750D01*
X111177000Y-99568750D01*
X111177000Y-100218000D01*
X112301250Y-100218000D01*
X112460000Y-100059250D01*
X112460000Y-99918690D01*
X115040000Y-99918690D01*
X115040000Y-100059250D01*
X115198750Y-100218000D01*
X116323000Y-100218000D01*
X116323000Y-99568750D01*
X116577000Y-99568750D01*
X116577000Y-100218000D01*
X117701250Y-100218000D01*
X117860000Y-100059250D01*
X117860000Y-99918690D01*
X117763327Y-99685301D01*
X117584698Y-99506673D01*
X117351309Y-99410000D01*
X116735750Y-99410000D01*
X116577000Y-99568750D01*
X116323000Y-99568750D01*
X116164250Y-99410000D01*
X115548691Y-99410000D01*
X115315302Y-99506673D01*
X115136673Y-99685301D01*
X115040000Y-99918690D01*
X112460000Y-99918690D01*
X112363327Y-99685301D01*
X112184698Y-99506673D01*
X111951309Y-99410000D01*
X111335750Y-99410000D01*
X111177000Y-99568750D01*
X110923000Y-99568750D01*
X110764250Y-99410000D01*
X110148691Y-99410000D01*
X109915302Y-99506673D01*
X109736673Y-99685301D01*
X109640000Y-99918690D01*
X94551431Y-99918690D01*
X94529127Y-99806564D01*
X94334586Y-99515414D01*
X94276433Y-99476557D01*
X94285000Y-99455874D01*
X94285000Y-99044126D01*
X94127431Y-98663720D01*
X93836280Y-98372569D01*
X93455874Y-98215000D01*
X93044126Y-98215000D01*
X92663720Y-98372569D01*
X92372569Y-98663720D01*
X92215000Y-99044126D01*
X92215000Y-99455874D01*
X92223567Y-99476557D01*
X92165414Y-99515414D01*
X91970873Y-99806564D01*
X91910398Y-100110596D01*
X90502547Y-98702746D01*
X91209380Y-98409966D01*
X91809966Y-97809380D01*
X92135000Y-97024678D01*
X92135000Y-96175322D01*
X91809966Y-95390620D01*
X91209380Y-94790034D01*
X90424678Y-94465000D01*
X89575322Y-94465000D01*
X88934999Y-94730230D01*
X88934999Y-92190750D01*
X91165000Y-92190750D01*
X91165000Y-92356310D01*
X91261673Y-92589699D01*
X91440302Y-92768327D01*
X91673691Y-92865000D01*
X92364250Y-92865000D01*
X92523000Y-92706250D01*
X92523000Y-92032000D01*
X92777000Y-92032000D01*
X92777000Y-92706250D01*
X92935750Y-92865000D01*
X93626309Y-92865000D01*
X93859698Y-92768327D01*
X94038327Y-92589699D01*
X94135000Y-92356310D01*
X94135000Y-92190750D01*
X93976250Y-92032000D01*
X92777000Y-92032000D01*
X92523000Y-92032000D01*
X91323750Y-92032000D01*
X91165000Y-92190750D01*
X88934999Y-92190750D01*
X88934999Y-90125000D01*
X89545151Y-90125000D01*
X89619998Y-90139888D01*
X89694845Y-90125000D01*
X89694850Y-90125000D01*
X89916535Y-90080904D01*
X90167927Y-89912929D01*
X90210329Y-89849470D01*
X91185524Y-88874276D01*
X91152560Y-89040000D01*
X91152560Y-89690000D01*
X91201843Y-89937765D01*
X91243427Y-90000000D01*
X91201843Y-90062235D01*
X91152560Y-90310000D01*
X91152560Y-90960000D01*
X91201843Y-91207765D01*
X91241983Y-91267838D01*
X91165000Y-91453690D01*
X91165000Y-91619250D01*
X91323750Y-91778000D01*
X92523000Y-91778000D01*
X92523000Y-91758000D01*
X92777000Y-91758000D01*
X92777000Y-91778000D01*
X93976250Y-91778000D01*
X94135000Y-91619250D01*
X94135000Y-91453690D01*
X94058017Y-91267838D01*
X94098157Y-91207765D01*
X94147440Y-90960000D01*
X94147440Y-90737361D01*
X94410000Y-90474801D01*
X94410000Y-90601309D01*
X94506673Y-90834698D01*
X94685301Y-91013327D01*
X94918690Y-91110000D01*
X95059250Y-91110000D01*
X95218000Y-90951250D01*
X95218000Y-89827000D01*
X95198000Y-89827000D01*
X95198000Y-89686802D01*
X95204472Y-89680330D01*
X95267928Y-89637930D01*
X95324676Y-89553000D01*
X95472000Y-89553000D01*
X95472000Y-89573000D01*
X95492000Y-89573000D01*
X95492000Y-89827000D01*
X95472000Y-89827000D01*
X95472000Y-90951250D01*
X95487798Y-90967048D01*
X95415414Y-91015414D01*
X95220873Y-91306564D01*
X95152560Y-91649999D01*
X95152560Y-92070862D01*
X94685847Y-92537575D01*
X94611951Y-92586951D01*
X94416348Y-92879691D01*
X94365000Y-93137836D01*
X94365000Y-93137839D01*
X94347663Y-93225000D01*
X94365000Y-93312161D01*
X94365001Y-94662831D01*
X94365000Y-94662836D01*
X94365001Y-95431992D01*
X94215000Y-95794126D01*
X94215000Y-96205874D01*
X94372569Y-96586280D01*
X94663720Y-96877431D01*
X95044126Y-97035000D01*
X95455874Y-97035000D01*
X95836280Y-96877431D01*
X96127431Y-96586280D01*
X96285000Y-96205874D01*
X96285000Y-96175322D01*
X107865000Y-96175322D01*
X107865000Y-97024678D01*
X108190034Y-97809380D01*
X108790620Y-98409966D01*
X109575322Y-98735000D01*
X110424678Y-98735000D01*
X111209380Y-98409966D01*
X111308596Y-98310750D01*
X115665000Y-98310750D01*
X115665000Y-98726309D01*
X115761673Y-98959698D01*
X115940301Y-99138327D01*
X116173690Y-99235000D01*
X116714250Y-99235000D01*
X116873000Y-99076250D01*
X116873000Y-98152000D01*
X117127000Y-98152000D01*
X117127000Y-99076250D01*
X117285750Y-99235000D01*
X117826310Y-99235000D01*
X118059699Y-99138327D01*
X118238327Y-98959698D01*
X118335000Y-98726309D01*
X118335000Y-98310750D01*
X118176250Y-98152000D01*
X117127000Y-98152000D01*
X116873000Y-98152000D01*
X115823750Y-98152000D01*
X115665000Y-98310750D01*
X111308596Y-98310750D01*
X111809966Y-97809380D01*
X112135000Y-97024678D01*
X112135000Y-96175322D01*
X111809966Y-95390620D01*
X111209380Y-94790034D01*
X110424678Y-94465000D01*
X109575322Y-94465000D01*
X108790620Y-94790034D01*
X108190034Y-95390620D01*
X107865000Y-96175322D01*
X96285000Y-96175322D01*
X96285000Y-95794126D01*
X96135000Y-95431993D01*
X96135000Y-95235000D01*
X96214250Y-95235000D01*
X96373000Y-95076250D01*
X96373000Y-94152000D01*
X96627000Y-94152000D01*
X96627000Y-95076250D01*
X96785750Y-95235000D01*
X97326310Y-95235000D01*
X97559699Y-95138327D01*
X97738327Y-94959698D01*
X97835000Y-94726309D01*
X97835000Y-94310750D01*
X97676250Y-94152000D01*
X96627000Y-94152000D01*
X96373000Y-94152000D01*
X96353000Y-94152000D01*
X96353000Y-93898000D01*
X96373000Y-93898000D01*
X96373000Y-93878000D01*
X96627000Y-93878000D01*
X96627000Y-93898000D01*
X97676250Y-93898000D01*
X97835000Y-93739250D01*
X97835000Y-93323691D01*
X97738327Y-93090302D01*
X97583403Y-92935377D01*
X97584586Y-92934586D01*
X97779127Y-92643436D01*
X97806947Y-92503576D01*
X98124234Y-92635000D01*
X98575766Y-92635000D01*
X98992926Y-92462207D01*
X99300000Y-92155133D01*
X99607074Y-92462207D01*
X100024234Y-92635000D01*
X100475766Y-92635000D01*
X100642950Y-92565750D01*
X107065000Y-92565750D01*
X107065000Y-93006310D01*
X107161673Y-93239699D01*
X107340302Y-93418327D01*
X107573691Y-93515000D01*
X108514250Y-93515000D01*
X108673000Y-93356250D01*
X108673000Y-92407000D01*
X108927000Y-92407000D01*
X108927000Y-93356250D01*
X109085750Y-93515000D01*
X110026309Y-93515000D01*
X110259698Y-93418327D01*
X110438327Y-93239699D01*
X110535000Y-93006310D01*
X110535000Y-92565750D01*
X110376250Y-92407000D01*
X108927000Y-92407000D01*
X108673000Y-92407000D01*
X107223750Y-92407000D01*
X107065000Y-92565750D01*
X100642950Y-92565750D01*
X100892926Y-92462207D01*
X101212207Y-92142926D01*
X101262361Y-92021843D01*
X101294126Y-92035000D01*
X101705874Y-92035000D01*
X102086280Y-91877431D01*
X102377431Y-91586280D01*
X102390930Y-91553690D01*
X107065000Y-91553690D01*
X107065000Y-91994250D01*
X107223750Y-92153000D01*
X108673000Y-92153000D01*
X108673000Y-91203750D01*
X108927000Y-91203750D01*
X108927000Y-92153000D01*
X110376250Y-92153000D01*
X110535000Y-91994250D01*
X110535000Y-91553690D01*
X110438327Y-91320301D01*
X110259698Y-91141673D01*
X110026309Y-91045000D01*
X109085750Y-91045000D01*
X108927000Y-91203750D01*
X108673000Y-91203750D01*
X108514250Y-91045000D01*
X107573691Y-91045000D01*
X107340302Y-91141673D01*
X107161673Y-91320301D01*
X107065000Y-91553690D01*
X102390930Y-91553690D01*
X102535000Y-91205874D01*
X102535000Y-90794126D01*
X102526433Y-90773443D01*
X102584586Y-90734586D01*
X102779127Y-90443436D01*
X102847440Y-90100001D01*
X102847440Y-89810750D01*
X104665000Y-89810750D01*
X104665000Y-90226309D01*
X104761673Y-90459698D01*
X104940301Y-90638327D01*
X105173690Y-90735000D01*
X105714250Y-90735000D01*
X105873000Y-90576250D01*
X105873000Y-89652000D01*
X106127000Y-89652000D01*
X106127000Y-90576250D01*
X106285750Y-90735000D01*
X106826310Y-90735000D01*
X107059699Y-90638327D01*
X107238327Y-90459698D01*
X107335000Y-90226309D01*
X107335000Y-89810750D01*
X107176250Y-89652000D01*
X106127000Y-89652000D01*
X105873000Y-89652000D01*
X104823750Y-89652000D01*
X104665000Y-89810750D01*
X102847440Y-89810750D01*
X102847440Y-89449999D01*
X102779127Y-89106564D01*
X102584586Y-88815414D01*
X102486687Y-88750000D01*
X102584586Y-88684586D01*
X102779127Y-88393436D01*
X102847440Y-88050001D01*
X102847440Y-87399999D01*
X102797713Y-87149999D01*
X104652560Y-87149999D01*
X104652560Y-87800001D01*
X104720873Y-88143436D01*
X104915414Y-88434586D01*
X104916597Y-88435377D01*
X104761673Y-88590302D01*
X104665000Y-88823691D01*
X104665000Y-89239250D01*
X104823750Y-89398000D01*
X105873000Y-89398000D01*
X105873000Y-89378000D01*
X106127000Y-89378000D01*
X106127000Y-89398000D01*
X107176250Y-89398000D01*
X107335000Y-89239250D01*
X107335000Y-88839822D01*
X107452235Y-88918157D01*
X107700000Y-88967440D01*
X109900000Y-88967440D01*
X110147765Y-88918157D01*
X110357809Y-88777809D01*
X110498157Y-88567765D01*
X110547440Y-88320000D01*
X110547440Y-87120000D01*
X110543462Y-87100000D01*
X111252560Y-87100000D01*
X111252560Y-92900000D01*
X111301843Y-93147765D01*
X111442191Y-93357809D01*
X111652235Y-93498157D01*
X111900000Y-93547440D01*
X113953220Y-93547440D01*
X113942765Y-93600000D01*
X114030854Y-94042854D01*
X114030855Y-94042855D01*
X114065000Y-94093957D01*
X114065000Y-94285439D01*
X114283466Y-94812862D01*
X114687138Y-95216534D01*
X115204081Y-95430659D01*
X115652560Y-95879139D01*
X115652560Y-96300001D01*
X115720873Y-96643436D01*
X115915414Y-96934586D01*
X115916597Y-96935377D01*
X115761673Y-97090302D01*
X115665000Y-97323691D01*
X115665000Y-97739250D01*
X115823750Y-97898000D01*
X116873000Y-97898000D01*
X116873000Y-97878000D01*
X117127000Y-97878000D01*
X117127000Y-97898000D01*
X118176250Y-97898000D01*
X118335000Y-97739250D01*
X118335000Y-97323691D01*
X118238327Y-97090302D01*
X118083403Y-96935377D01*
X118084586Y-96934586D01*
X118279127Y-96643436D01*
X118347440Y-96300001D01*
X118347440Y-95649999D01*
X118279127Y-95306564D01*
X118084586Y-95015414D01*
X117793436Y-94820873D01*
X117450001Y-94752560D01*
X117029139Y-94752560D01*
X116825756Y-94549177D01*
X116935000Y-94285439D01*
X116935000Y-93714561D01*
X116865776Y-93547440D01*
X118300000Y-93547440D01*
X118547765Y-93498157D01*
X118757809Y-93357809D01*
X118898157Y-93147765D01*
X118947440Y-92900000D01*
X118947440Y-87100000D01*
X118898157Y-86852235D01*
X118757809Y-86642191D01*
X118547765Y-86501843D01*
X118300000Y-86452560D01*
X116865776Y-86452560D01*
X116935000Y-86285439D01*
X116935000Y-85714561D01*
X116716534Y-85187138D01*
X116312862Y-84783466D01*
X115785439Y-84565000D01*
X115214561Y-84565000D01*
X114687138Y-84783466D01*
X114283466Y-85187138D01*
X114065000Y-85714561D01*
X114065000Y-85906043D01*
X114030854Y-85957146D01*
X113942765Y-86400000D01*
X113953220Y-86452560D01*
X111900000Y-86452560D01*
X111652235Y-86501843D01*
X111442191Y-86642191D01*
X111301843Y-86852235D01*
X111252560Y-87100000D01*
X110543462Y-87100000D01*
X110498157Y-86872235D01*
X110357809Y-86662191D01*
X110147765Y-86521843D01*
X109935000Y-86479522D01*
X109935000Y-85535000D01*
X110424678Y-85535000D01*
X111209380Y-85209966D01*
X111809966Y-84609380D01*
X112135000Y-83824678D01*
X112135000Y-82975322D01*
X111809966Y-82190620D01*
X111209380Y-81590034D01*
X110424678Y-81265000D01*
X109575322Y-81265000D01*
X108790620Y-81590034D01*
X108190034Y-82190620D01*
X107865000Y-82975322D01*
X107865000Y-83824678D01*
X107898677Y-83905982D01*
X107810432Y-84038049D01*
X107730854Y-84157146D01*
X107642765Y-84600000D01*
X107665001Y-84711788D01*
X107665000Y-86479522D01*
X107452235Y-86521843D01*
X107350232Y-86590000D01*
X107134423Y-86590000D01*
X107084586Y-86515414D01*
X106793436Y-86320873D01*
X106450001Y-86252560D01*
X105549999Y-86252560D01*
X105206564Y-86320873D01*
X104915414Y-86515414D01*
X104720873Y-86806564D01*
X104652560Y-87149999D01*
X102797713Y-87149999D01*
X102779127Y-87056564D01*
X102584586Y-86765414D01*
X102293436Y-86570873D01*
X101950001Y-86502560D01*
X101348022Y-86502560D01*
X101173165Y-86385724D01*
X100951480Y-86341628D01*
X100951475Y-86341628D01*
X100876628Y-86326740D01*
X100801781Y-86341628D01*
X100526430Y-86341628D01*
X99795796Y-85610995D01*
X99912809Y-85532809D01*
X100053157Y-85322765D01*
X100102440Y-85075000D01*
X100102440Y-83525000D01*
X100078645Y-83405374D01*
X100184586Y-83334586D01*
X100185377Y-83333403D01*
X100340302Y-83488327D01*
X100573691Y-83585000D01*
X100989250Y-83585000D01*
X101148000Y-83426250D01*
X101148000Y-82377000D01*
X101402000Y-82377000D01*
X101402000Y-83426250D01*
X101560750Y-83585000D01*
X101976309Y-83585000D01*
X102209698Y-83488327D01*
X102388327Y-83309699D01*
X102485000Y-83076310D01*
X102485000Y-82535750D01*
X102326250Y-82377000D01*
X101402000Y-82377000D01*
X101148000Y-82377000D01*
X101128000Y-82377000D01*
X101128000Y-82123000D01*
X101148000Y-82123000D01*
X101148000Y-81073750D01*
X101402000Y-81073750D01*
X101402000Y-82123000D01*
X102326250Y-82123000D01*
X102485000Y-81964250D01*
X102485000Y-81423690D01*
X102388327Y-81190301D01*
X102209698Y-81011673D01*
X101976309Y-80915000D01*
X101560750Y-80915000D01*
X101402000Y-81073750D01*
X101148000Y-81073750D01*
X100989250Y-80915000D01*
X100573691Y-80915000D01*
X100340302Y-81011673D01*
X100185377Y-81166597D01*
X100184586Y-81165414D01*
X99893436Y-80970873D01*
X99550001Y-80902560D01*
X98899999Y-80902560D01*
X98556564Y-80970873D01*
X98265414Y-81165414D01*
X98226557Y-81223567D01*
X98205874Y-81215000D01*
X97794126Y-81215000D01*
X97413720Y-81372569D01*
X97122569Y-81663720D01*
X96965000Y-82044126D01*
X96965000Y-82455874D01*
X97122569Y-82836280D01*
X97262841Y-82976552D01*
X97250000Y-82985132D01*
X97162765Y-82926843D01*
X96915000Y-82877560D01*
X96315000Y-82877560D01*
X96235000Y-82893473D01*
X96235000Y-82535750D01*
X96076250Y-82377000D01*
X95152000Y-82377000D01*
X95152000Y-82397000D01*
X94898000Y-82397000D01*
X94898000Y-82377000D01*
X94878000Y-82377000D01*
X94878000Y-82123000D01*
X94898000Y-82123000D01*
X94898000Y-81073750D01*
X95152000Y-81073750D01*
X95152000Y-82123000D01*
X96076250Y-82123000D01*
X96235000Y-81964250D01*
X96235000Y-81423690D01*
X96138327Y-81190301D01*
X95959698Y-81011673D01*
X95726309Y-80915000D01*
X95310750Y-80915000D01*
X95152000Y-81073750D01*
X94898000Y-81073750D01*
X94739250Y-80915000D01*
X94323691Y-80915000D01*
X94090302Y-81011673D01*
X93935377Y-81166597D01*
X93934586Y-81165414D01*
X93643436Y-80970873D01*
X93300001Y-80902560D01*
X92649999Y-80902560D01*
X92306564Y-80970873D01*
X92015414Y-81165414D01*
X91882054Y-81365000D01*
X91237161Y-81365000D01*
X91150000Y-81347663D01*
X91062839Y-81365000D01*
X91062835Y-81365000D01*
X90804690Y-81416348D01*
X90799093Y-81420088D01*
X90424678Y-81265000D01*
X89575322Y-81265000D01*
X88790620Y-81590034D01*
X88190034Y-82190620D01*
X87865000Y-82975322D01*
X87865000Y-83824678D01*
X88190034Y-84609380D01*
X88320654Y-84740000D01*
X86178164Y-84740000D01*
X86136109Y-84677061D01*
X85884717Y-84509086D01*
X85663032Y-84464990D01*
X85663027Y-84464990D01*
X85588180Y-84450102D01*
X85513333Y-84464990D01*
X84536666Y-84464990D01*
X84461819Y-84450102D01*
X84386972Y-84464990D01*
X84386968Y-84464990D01*
X84165283Y-84509086D01*
X83913891Y-84677061D01*
X83871489Y-84740520D01*
X83690946Y-84921063D01*
X83676309Y-84915000D01*
X83260750Y-84915000D01*
X83102000Y-85073750D01*
X82848000Y-85073750D01*
X82689250Y-84915000D01*
X82273691Y-84915000D01*
X82040302Y-85011673D01*
X81861673Y-85190301D01*
X81765000Y-85423690D01*
X80710000Y-85423690D01*
X80710000Y-80710000D01*
X119290001Y-80710000D01*
X119290000Y-109290000D01*
X119290000Y-109290000D01*
G37*
X119290000Y-109290000D02*
X80710000Y-109290000D01*
X80710000Y-105856892D01*
X81648514Y-105856892D01*
X81894817Y-106381358D01*
X82323076Y-106771645D01*
X82733110Y-106941476D01*
X82963000Y-106820155D01*
X82963000Y-105627000D01*
X81769181Y-105627000D01*
X81648514Y-105856892D01*
X80710000Y-105856892D01*
X80710000Y-105143108D01*
X81648514Y-105143108D01*
X81769181Y-105373000D01*
X82963000Y-105373000D01*
X82963000Y-104179845D01*
X82733110Y-104058524D01*
X82323076Y-104228355D01*
X81894817Y-104618642D01*
X81648514Y-105143108D01*
X80710000Y-105143108D01*
X80710000Y-86535750D01*
X81765000Y-86535750D01*
X81765000Y-87076310D01*
X81861673Y-87309699D01*
X82040302Y-87488327D01*
X82273691Y-87585000D01*
X82689250Y-87585000D01*
X82848000Y-87426250D01*
X82848000Y-86377000D01*
X81923750Y-86377000D01*
X81765000Y-86535750D01*
X80710000Y-86535750D01*
X80710000Y-85423690D01*
X81765000Y-85423690D01*
X81765000Y-85964250D01*
X81923750Y-86123000D01*
X82848000Y-86123000D01*
X82848000Y-85073750D01*
X83102000Y-85073750D01*
X83102000Y-86123000D01*
X83122000Y-86123000D01*
X83122000Y-86377000D01*
X83102000Y-86377000D01*
X83102000Y-87426250D01*
X83240001Y-87564251D01*
X83240000Y-91005153D01*
X83225112Y-91080000D01*
X83240000Y-91154847D01*
X83240000Y-91154851D01*
X83284096Y-91376536D01*
X83452071Y-91627929D01*
X83515530Y-91670331D01*
X83852560Y-92007361D01*
X83852560Y-92230000D01*
X83901843Y-92477765D01*
X84042191Y-92687809D01*
X84252235Y-92828157D01*
X84500000Y-92877440D01*
X84590000Y-92877440D01*
X84590001Y-101050148D01*
X84575112Y-101125000D01*
X84634097Y-101421537D01*
X84730233Y-101565414D01*
X84802072Y-101672929D01*
X84865528Y-101715329D01*
X85152560Y-102002361D01*
X85152560Y-102600001D01*
X85220873Y-102943436D01*
X85415414Y-103234586D01*
X85706564Y-103429127D01*
X85740001Y-103435778D01*
X85740001Y-103755149D01*
X85725112Y-103830000D01*
X85740001Y-103904852D01*
X85761911Y-104015000D01*
X85483744Y-104015000D01*
X85050582Y-104101161D01*
X84559375Y-104429375D01*
X84346157Y-104748478D01*
X84285183Y-104618642D01*
X83856924Y-104228355D01*
X83446890Y-104058524D01*
X83217000Y-104179845D01*
X83217000Y-105373000D01*
X83237000Y-105373000D01*
X83237000Y-105627000D01*
X83217000Y-105627000D01*
X83217000Y-106820155D01*
X83446890Y-106941476D01*
X83856924Y-106771645D01*
X84285183Y-106381358D01*
X84346157Y-106251522D01*
X84559375Y-106570625D01*
X85050582Y-106898839D01*
X85483744Y-106985000D01*
X85776256Y-106985000D01*
X86209418Y-106898839D01*
X86700625Y-106570625D01*
X86900000Y-106272239D01*
X87099375Y-106570625D01*
X87590582Y-106898839D01*
X88023744Y-106985000D01*
X88316256Y-106985000D01*
X88536408Y-106941209D01*
X89734671Y-108139473D01*
X89777071Y-108202929D01*
X90028463Y-108370904D01*
X90250148Y-108415000D01*
X90250152Y-108415000D01*
X90324999Y-108429888D01*
X90399846Y-108415000D01*
X99526950Y-108415000D01*
X99542191Y-108437809D01*
X99752235Y-108578157D01*
X100000000Y-108627440D01*
X101700000Y-108627440D01*
X101947765Y-108578157D01*
X102157809Y-108437809D01*
X102173050Y-108415000D01*
X102505151Y-108415000D01*
X102579998Y-108429888D01*
X102654845Y-108415000D01*
X102654850Y-108415000D01*
X102876535Y-108370904D01*
X103127927Y-108202929D01*
X103170329Y-108139470D01*
X103369049Y-107940750D01*
X106665000Y-107940750D01*
X106665000Y-108106310D01*
X106761673Y-108339699D01*
X106940302Y-108518327D01*
X107173691Y-108615000D01*
X107864250Y-108615000D01*
X108023000Y-108456250D01*
X108023000Y-107782000D01*
X108277000Y-107782000D01*
X108277000Y-108456250D01*
X108435750Y-108615000D01*
X109126309Y-108615000D01*
X109359698Y-108518327D01*
X109538327Y-108339699D01*
X109635000Y-108106310D01*
X109635000Y-107940750D01*
X109476250Y-107782000D01*
X108277000Y-107782000D01*
X108023000Y-107782000D01*
X106823750Y-107782000D01*
X106665000Y-107940750D01*
X103369049Y-107940750D01*
X104639049Y-106670750D01*
X106665000Y-106670750D01*
X106665000Y-106836310D01*
X106741087Y-107020000D01*
X106665000Y-107203690D01*
X106665000Y-107369250D01*
X106823750Y-107528000D01*
X108023000Y-107528000D01*
X108023000Y-106512000D01*
X108277000Y-106512000D01*
X108277000Y-107528000D01*
X109476250Y-107528000D01*
X109635000Y-107369250D01*
X109635000Y-107203690D01*
X109558913Y-107020000D01*
X109635000Y-106836310D01*
X109635000Y-106670750D01*
X109476250Y-106512000D01*
X108277000Y-106512000D01*
X108023000Y-106512000D01*
X106823750Y-106512000D01*
X106665000Y-106670750D01*
X104639049Y-106670750D01*
X105024049Y-106285750D01*
X113265000Y-106285750D01*
X113265000Y-106826310D01*
X113361673Y-107059699D01*
X113540302Y-107238327D01*
X113773691Y-107335000D01*
X114189250Y-107335000D01*
X114348000Y-107176250D01*
X114348000Y-106127000D01*
X113423750Y-106127000D01*
X113265000Y-106285750D01*
X105024049Y-106285750D01*
X105909049Y-105400750D01*
X106665000Y-105400750D01*
X106665000Y-105566310D01*
X106741087Y-105750000D01*
X106665000Y-105933690D01*
X106665000Y-106099250D01*
X106823750Y-106258000D01*
X108023000Y-106258000D01*
X108023000Y-105242000D01*
X108277000Y-105242000D01*
X108277000Y-106258000D01*
X109476250Y-106258000D01*
X109635000Y-106099250D01*
X109635000Y-105933690D01*
X109558913Y-105750000D01*
X109635000Y-105566310D01*
X109635000Y-105400750D01*
X109476250Y-105242000D01*
X108277000Y-105242000D01*
X108023000Y-105242000D01*
X106823750Y-105242000D01*
X106665000Y-105400750D01*
X105909049Y-105400750D01*
X106136109Y-105173690D01*
X113265000Y-105173690D01*
X113265000Y-105714250D01*
X113423750Y-105873000D01*
X114348000Y-105873000D01*
X114348000Y-104823750D01*
X114602000Y-104823750D01*
X114602000Y-105873000D01*
X114622000Y-105873000D01*
X114622000Y-106127000D01*
X114602000Y-106127000D01*
X114602000Y-107176250D01*
X114760750Y-107335000D01*
X115176309Y-107335000D01*
X115409698Y-107238327D01*
X115564623Y-107083403D01*
X115565414Y-107084586D01*
X115856564Y-107279127D01*
X116199999Y-107347440D01*
X116850001Y-107347440D01*
X117193436Y-107279127D01*
X117484586Y-107084586D01*
X117523443Y-107026433D01*
X117544126Y-107035000D01*
X117955874Y-107035000D01*
X118336280Y-106877431D01*
X118627431Y-106586280D01*
X118785000Y-106205874D01*
X118785000Y-105794126D01*
X118627431Y-105413720D01*
X118336280Y-105122569D01*
X117955874Y-104965000D01*
X117604700Y-104965000D01*
X117682809Y-104912809D01*
X117823157Y-104702765D01*
X117872440Y-104455000D01*
X117872440Y-103855000D01*
X117823157Y-103607235D01*
X117770232Y-103528028D01*
X117860000Y-103311310D01*
X117860000Y-103170750D01*
X117701250Y-103012000D01*
X116577000Y-103012000D01*
X116577000Y-103032000D01*
X116323000Y-103032000D01*
X116323000Y-103012000D01*
X115198750Y-103012000D01*
X115040000Y-103170750D01*
X115040000Y-103311310D01*
X115129768Y-103528028D01*
X115076843Y-103607235D01*
X115027560Y-103855000D01*
X115027560Y-104455000D01*
X115069331Y-104665000D01*
X114760750Y-104665000D01*
X114602000Y-104823750D01*
X114348000Y-104823750D01*
X114189250Y-104665000D01*
X113773691Y-104665000D01*
X113540302Y-104761673D01*
X113361673Y-104940301D01*
X113265000Y-105173690D01*
X106136109Y-105173690D01*
X106678357Y-104631442D01*
X106665000Y-104663690D01*
X106665000Y-104829250D01*
X106823750Y-104988000D01*
X108023000Y-104988000D01*
X108023000Y-103972000D01*
X108003000Y-103972000D01*
X108003000Y-103954999D01*
X108297000Y-103954999D01*
X108297000Y-103972000D01*
X108277000Y-103972000D01*
X108277000Y-104988000D01*
X109476250Y-104988000D01*
X109635000Y-104829250D01*
X109635000Y-104663690D01*
X109558913Y-104480000D01*
X109627560Y-104314272D01*
X109627560Y-104455000D01*
X109676843Y-104702765D01*
X109817191Y-104912809D01*
X110027235Y-105053157D01*
X110275000Y-105102440D01*
X111825000Y-105102440D01*
X112072765Y-105053157D01*
X112282809Y-104912809D01*
X112423157Y-104702765D01*
X112472440Y-104455000D01*
X112472440Y-103855000D01*
X112423157Y-103607235D01*
X112364868Y-103520000D01*
X112423157Y-103432765D01*
X112472440Y-103185000D01*
X112472440Y-102585000D01*
X112423157Y-102337235D01*
X112364868Y-102250000D01*
X112423157Y-102162765D01*
X112472440Y-101915000D01*
X112472440Y-101900750D01*
X115040000Y-101900750D01*
X115040000Y-102041310D01*
X115126442Y-102250000D01*
X115040000Y-102458690D01*
X115040000Y-102599250D01*
X115198750Y-102758000D01*
X116323000Y-102758000D01*
X116323000Y-101742000D01*
X116577000Y-101742000D01*
X116577000Y-102758000D01*
X117701250Y-102758000D01*
X117860000Y-102599250D01*
X117860000Y-102458690D01*
X117773558Y-102250000D01*
X117860000Y-102041310D01*
X117860000Y-101900750D01*
X117701250Y-101742000D01*
X116577000Y-101742000D01*
X116323000Y-101742000D01*
X115198750Y-101742000D01*
X115040000Y-101900750D01*
X112472440Y-101900750D01*
X112472440Y-101315000D01*
X112423157Y-101067235D01*
X112370232Y-100988028D01*
X112460000Y-100771310D01*
X112460000Y-100630750D01*
X115040000Y-100630750D01*
X115040000Y-100771310D01*
X115126442Y-100980000D01*
X115040000Y-101188690D01*
X115040000Y-101329250D01*
X115198750Y-101488000D01*
X116323000Y-101488000D01*
X116323000Y-100472000D01*
X116577000Y-100472000D01*
X116577000Y-101488000D01*
X117701250Y-101488000D01*
X117860000Y-101329250D01*
X117860000Y-101188690D01*
X117773558Y-100980000D01*
X117860000Y-100771310D01*
X117860000Y-100630750D01*
X117701250Y-100472000D01*
X116577000Y-100472000D01*
X116323000Y-100472000D01*
X115198750Y-100472000D01*
X115040000Y-100630750D01*
X112460000Y-100630750D01*
X112301250Y-100472000D01*
X111177000Y-100472000D01*
X111177000Y-100492000D01*
X110923000Y-100492000D01*
X110923000Y-100472000D01*
X109798750Y-100472000D01*
X109640000Y-100630750D01*
X109640000Y-100771310D01*
X109729768Y-100988028D01*
X109676843Y-101067235D01*
X109627560Y-101315000D01*
X109627560Y-101575000D01*
X106074847Y-101575000D01*
X106000000Y-101560112D01*
X105925153Y-101575000D01*
X105925148Y-101575000D01*
X105703463Y-101619096D01*
X105452071Y-101787071D01*
X105409671Y-101850527D01*
X102272201Y-104987998D01*
X102176252Y-104987998D01*
X102335000Y-104829250D01*
X102335000Y-104663690D01*
X102258017Y-104477838D01*
X102298157Y-104417765D01*
X102347440Y-104170000D01*
X102347440Y-103520000D01*
X102298157Y-103272235D01*
X102157809Y-103062191D01*
X102035000Y-102980132D01*
X102035000Y-102794126D01*
X101877431Y-102413720D01*
X101586280Y-102122569D01*
X101205874Y-101965000D01*
X100794126Y-101965000D01*
X100413720Y-102122569D01*
X100122569Y-102413720D01*
X99965000Y-102794126D01*
X99965000Y-102879522D01*
X99752235Y-102921843D01*
X99695129Y-102960000D01*
X99679810Y-102960000D01*
X99679127Y-102956564D01*
X99484586Y-102665414D01*
X99193436Y-102470873D01*
X98850001Y-102402560D01*
X98199999Y-102402560D01*
X97856564Y-102470873D01*
X97565414Y-102665414D01*
X97564623Y-102666597D01*
X97409698Y-102511673D01*
X97176309Y-102415000D01*
X96760750Y-102415000D01*
X96602000Y-102573750D01*
X96602000Y-103623000D01*
X96622000Y-103623000D01*
X96622000Y-103877000D01*
X96602000Y-103877000D01*
X96602000Y-104926250D01*
X96760750Y-105085000D01*
X97176309Y-105085000D01*
X97409698Y-104988327D01*
X97564623Y-104833403D01*
X97565414Y-104834586D01*
X97856564Y-105029127D01*
X98199999Y-105097440D01*
X98850001Y-105097440D01*
X99193436Y-105029127D01*
X99416098Y-104880348D01*
X99523750Y-104988000D01*
X100723000Y-104988000D01*
X100723000Y-104968000D01*
X100977000Y-104968000D01*
X100977000Y-104988000D01*
X100997000Y-104988000D01*
X100997000Y-105242000D01*
X100977000Y-105242000D01*
X100977000Y-105262000D01*
X100723000Y-105262000D01*
X100723000Y-105242000D01*
X99523750Y-105242000D01*
X99365000Y-105400750D01*
X99365000Y-105566310D01*
X99417523Y-105693111D01*
X99390902Y-105710898D01*
X99265526Y-105794671D01*
X99265524Y-105794673D01*
X99202071Y-105837071D01*
X99159672Y-105900525D01*
X98895188Y-106165010D01*
X94747440Y-106165010D01*
X94747440Y-104650000D01*
X94698157Y-104402235D01*
X94557809Y-104192191D01*
X94347765Y-104051843D01*
X94266860Y-104035750D01*
X95265000Y-104035750D01*
X95265000Y-104576310D01*
X95361673Y-104809699D01*
X95540302Y-104988327D01*
X95773691Y-105085000D01*
X96189250Y-105085000D01*
X96348000Y-104926250D01*
X96348000Y-103877000D01*
X95423750Y-103877000D01*
X95265000Y-104035750D01*
X94266860Y-104035750D01*
X94100000Y-104002560D01*
X94010000Y-104002560D01*
X94010000Y-103685778D01*
X94043436Y-103679127D01*
X94334586Y-103484586D01*
X94529127Y-103193436D01*
X94582782Y-102923690D01*
X95265000Y-102923690D01*
X95265000Y-103464250D01*
X95423750Y-103623000D01*
X96348000Y-103623000D01*
X96348000Y-102573750D01*
X96189250Y-102415000D01*
X95773691Y-102415000D01*
X95540302Y-102511673D01*
X95361673Y-102690301D01*
X95265000Y-102923690D01*
X94582782Y-102923690D01*
X94597440Y-102850001D01*
X94597440Y-102199999D01*
X94529127Y-101856564D01*
X94334586Y-101565414D01*
X94236687Y-101500000D01*
X94334586Y-101434586D01*
X94529127Y-101143436D01*
X94597440Y-100800001D01*
X94597440Y-100149999D01*
X94551431Y-99918690D01*
X109640000Y-99918690D01*
X109640000Y-100059250D01*
X109798750Y-100218000D01*
X110923000Y-100218000D01*
X110923000Y-99568750D01*
X111177000Y-99568750D01*
X111177000Y-100218000D01*
X112301250Y-100218000D01*
X112460000Y-100059250D01*
X112460000Y-99918690D01*
X115040000Y-99918690D01*
X115040000Y-100059250D01*
X115198750Y-100218000D01*
X116323000Y-100218000D01*
X116323000Y-99568750D01*
X116577000Y-99568750D01*
X116577000Y-100218000D01*
X117701250Y-100218000D01*
X117860000Y-100059250D01*
X117860000Y-99918690D01*
X117763327Y-99685301D01*
X117584698Y-99506673D01*
X117351309Y-99410000D01*
X116735750Y-99410000D01*
X116577000Y-99568750D01*
X116323000Y-99568750D01*
X116164250Y-99410000D01*
X115548691Y-99410000D01*
X115315302Y-99506673D01*
X115136673Y-99685301D01*
X115040000Y-99918690D01*
X112460000Y-99918690D01*
X112363327Y-99685301D01*
X112184698Y-99506673D01*
X111951309Y-99410000D01*
X111335750Y-99410000D01*
X111177000Y-99568750D01*
X110923000Y-99568750D01*
X110764250Y-99410000D01*
X110148691Y-99410000D01*
X109915302Y-99506673D01*
X109736673Y-99685301D01*
X109640000Y-99918690D01*
X94551431Y-99918690D01*
X94529127Y-99806564D01*
X94334586Y-99515414D01*
X94276433Y-99476557D01*
X94285000Y-99455874D01*
X94285000Y-99044126D01*
X94127431Y-98663720D01*
X93836280Y-98372569D01*
X93455874Y-98215000D01*
X93044126Y-98215000D01*
X92663720Y-98372569D01*
X92372569Y-98663720D01*
X92215000Y-99044126D01*
X92215000Y-99455874D01*
X92223567Y-99476557D01*
X92165414Y-99515414D01*
X91970873Y-99806564D01*
X91910398Y-100110596D01*
X90502547Y-98702746D01*
X91209380Y-98409966D01*
X91809966Y-97809380D01*
X92135000Y-97024678D01*
X92135000Y-96175322D01*
X91809966Y-95390620D01*
X91209380Y-94790034D01*
X90424678Y-94465000D01*
X89575322Y-94465000D01*
X88934999Y-94730230D01*
X88934999Y-92190750D01*
X91165000Y-92190750D01*
X91165000Y-92356310D01*
X91261673Y-92589699D01*
X91440302Y-92768327D01*
X91673691Y-92865000D01*
X92364250Y-92865000D01*
X92523000Y-92706250D01*
X92523000Y-92032000D01*
X92777000Y-92032000D01*
X92777000Y-92706250D01*
X92935750Y-92865000D01*
X93626309Y-92865000D01*
X93859698Y-92768327D01*
X94038327Y-92589699D01*
X94135000Y-92356310D01*
X94135000Y-92190750D01*
X93976250Y-92032000D01*
X92777000Y-92032000D01*
X92523000Y-92032000D01*
X91323750Y-92032000D01*
X91165000Y-92190750D01*
X88934999Y-92190750D01*
X88934999Y-90125000D01*
X89545151Y-90125000D01*
X89619998Y-90139888D01*
X89694845Y-90125000D01*
X89694850Y-90125000D01*
X89916535Y-90080904D01*
X90167927Y-89912929D01*
X90210329Y-89849470D01*
X91185524Y-88874276D01*
X91152560Y-89040000D01*
X91152560Y-89690000D01*
X91201843Y-89937765D01*
X91243427Y-90000000D01*
X91201843Y-90062235D01*
X91152560Y-90310000D01*
X91152560Y-90960000D01*
X91201843Y-91207765D01*
X91241983Y-91267838D01*
X91165000Y-91453690D01*
X91165000Y-91619250D01*
X91323750Y-91778000D01*
X92523000Y-91778000D01*
X92523000Y-91758000D01*
X92777000Y-91758000D01*
X92777000Y-91778000D01*
X93976250Y-91778000D01*
X94135000Y-91619250D01*
X94135000Y-91453690D01*
X94058017Y-91267838D01*
X94098157Y-91207765D01*
X94147440Y-90960000D01*
X94147440Y-90737361D01*
X94410000Y-90474801D01*
X94410000Y-90601309D01*
X94506673Y-90834698D01*
X94685301Y-91013327D01*
X94918690Y-91110000D01*
X95059250Y-91110000D01*
X95218000Y-90951250D01*
X95218000Y-89827000D01*
X95198000Y-89827000D01*
X95198000Y-89686802D01*
X95204472Y-89680330D01*
X95267928Y-89637930D01*
X95324676Y-89553000D01*
X95472000Y-89553000D01*
X95472000Y-89573000D01*
X95492000Y-89573000D01*
X95492000Y-89827000D01*
X95472000Y-89827000D01*
X95472000Y-90951250D01*
X95487798Y-90967048D01*
X95415414Y-91015414D01*
X95220873Y-91306564D01*
X95152560Y-91649999D01*
X95152560Y-92070862D01*
X94685847Y-92537575D01*
X94611951Y-92586951D01*
X94416348Y-92879691D01*
X94365000Y-93137836D01*
X94365000Y-93137839D01*
X94347663Y-93225000D01*
X94365000Y-93312161D01*
X94365001Y-94662831D01*
X94365000Y-94662836D01*
X94365001Y-95431992D01*
X94215000Y-95794126D01*
X94215000Y-96205874D01*
X94372569Y-96586280D01*
X94663720Y-96877431D01*
X95044126Y-97035000D01*
X95455874Y-97035000D01*
X95836280Y-96877431D01*
X96127431Y-96586280D01*
X96285000Y-96205874D01*
X96285000Y-96175322D01*
X107865000Y-96175322D01*
X107865000Y-97024678D01*
X108190034Y-97809380D01*
X108790620Y-98409966D01*
X109575322Y-98735000D01*
X110424678Y-98735000D01*
X111209380Y-98409966D01*
X111308596Y-98310750D01*
X115665000Y-98310750D01*
X115665000Y-98726309D01*
X115761673Y-98959698D01*
X115940301Y-99138327D01*
X116173690Y-99235000D01*
X116714250Y-99235000D01*
X116873000Y-99076250D01*
X116873000Y-98152000D01*
X117127000Y-98152000D01*
X117127000Y-99076250D01*
X117285750Y-99235000D01*
X117826310Y-99235000D01*
X118059699Y-99138327D01*
X118238327Y-98959698D01*
X118335000Y-98726309D01*
X118335000Y-98310750D01*
X118176250Y-98152000D01*
X117127000Y-98152000D01*
X116873000Y-98152000D01*
X115823750Y-98152000D01*
X115665000Y-98310750D01*
X111308596Y-98310750D01*
X111809966Y-97809380D01*
X112135000Y-97024678D01*
X112135000Y-96175322D01*
X111809966Y-95390620D01*
X111209380Y-94790034D01*
X110424678Y-94465000D01*
X109575322Y-94465000D01*
X108790620Y-94790034D01*
X108190034Y-95390620D01*
X107865000Y-96175322D01*
X96285000Y-96175322D01*
X96285000Y-95794126D01*
X96135000Y-95431993D01*
X96135000Y-95235000D01*
X96214250Y-95235000D01*
X96373000Y-95076250D01*
X96373000Y-94152000D01*
X96627000Y-94152000D01*
X96627000Y-95076250D01*
X96785750Y-95235000D01*
X97326310Y-95235000D01*
X97559699Y-95138327D01*
X97738327Y-94959698D01*
X97835000Y-94726309D01*
X97835000Y-94310750D01*
X97676250Y-94152000D01*
X96627000Y-94152000D01*
X96373000Y-94152000D01*
X96353000Y-94152000D01*
X96353000Y-93898000D01*
X96373000Y-93898000D01*
X96373000Y-93878000D01*
X96627000Y-93878000D01*
X96627000Y-93898000D01*
X97676250Y-93898000D01*
X97835000Y-93739250D01*
X97835000Y-93323691D01*
X97738327Y-93090302D01*
X97583403Y-92935377D01*
X97584586Y-92934586D01*
X97779127Y-92643436D01*
X97806947Y-92503576D01*
X98124234Y-92635000D01*
X98575766Y-92635000D01*
X98992926Y-92462207D01*
X99300000Y-92155133D01*
X99607074Y-92462207D01*
X100024234Y-92635000D01*
X100475766Y-92635000D01*
X100642950Y-92565750D01*
X107065000Y-92565750D01*
X107065000Y-93006310D01*
X107161673Y-93239699D01*
X107340302Y-93418327D01*
X107573691Y-93515000D01*
X108514250Y-93515000D01*
X108673000Y-93356250D01*
X108673000Y-92407000D01*
X108927000Y-92407000D01*
X108927000Y-93356250D01*
X109085750Y-93515000D01*
X110026309Y-93515000D01*
X110259698Y-93418327D01*
X110438327Y-93239699D01*
X110535000Y-93006310D01*
X110535000Y-92565750D01*
X110376250Y-92407000D01*
X108927000Y-92407000D01*
X108673000Y-92407000D01*
X107223750Y-92407000D01*
X107065000Y-92565750D01*
X100642950Y-92565750D01*
X100892926Y-92462207D01*
X101212207Y-92142926D01*
X101262361Y-92021843D01*
X101294126Y-92035000D01*
X101705874Y-92035000D01*
X102086280Y-91877431D01*
X102377431Y-91586280D01*
X102390930Y-91553690D01*
X107065000Y-91553690D01*
X107065000Y-91994250D01*
X107223750Y-92153000D01*
X108673000Y-92153000D01*
X108673000Y-91203750D01*
X108927000Y-91203750D01*
X108927000Y-92153000D01*
X110376250Y-92153000D01*
X110535000Y-91994250D01*
X110535000Y-91553690D01*
X110438327Y-91320301D01*
X110259698Y-91141673D01*
X110026309Y-91045000D01*
X109085750Y-91045000D01*
X108927000Y-91203750D01*
X108673000Y-91203750D01*
X108514250Y-91045000D01*
X107573691Y-91045000D01*
X107340302Y-91141673D01*
X107161673Y-91320301D01*
X107065000Y-91553690D01*
X102390930Y-91553690D01*
X102535000Y-91205874D01*
X102535000Y-90794126D01*
X102526433Y-90773443D01*
X102584586Y-90734586D01*
X102779127Y-90443436D01*
X102847440Y-90100001D01*
X102847440Y-89810750D01*
X104665000Y-89810750D01*
X104665000Y-90226309D01*
X104761673Y-90459698D01*
X104940301Y-90638327D01*
X105173690Y-90735000D01*
X105714250Y-90735000D01*
X105873000Y-90576250D01*
X105873000Y-89652000D01*
X106127000Y-89652000D01*
X106127000Y-90576250D01*
X106285750Y-90735000D01*
X106826310Y-90735000D01*
X107059699Y-90638327D01*
X107238327Y-90459698D01*
X107335000Y-90226309D01*
X107335000Y-89810750D01*
X107176250Y-89652000D01*
X106127000Y-89652000D01*
X105873000Y-89652000D01*
X104823750Y-89652000D01*
X104665000Y-89810750D01*
X102847440Y-89810750D01*
X102847440Y-89449999D01*
X102779127Y-89106564D01*
X102584586Y-88815414D01*
X102486687Y-88750000D01*
X102584586Y-88684586D01*
X102779127Y-88393436D01*
X102847440Y-88050001D01*
X102847440Y-87399999D01*
X102797713Y-87149999D01*
X104652560Y-87149999D01*
X104652560Y-87800001D01*
X104720873Y-88143436D01*
X104915414Y-88434586D01*
X104916597Y-88435377D01*
X104761673Y-88590302D01*
X104665000Y-88823691D01*
X104665000Y-89239250D01*
X104823750Y-89398000D01*
X105873000Y-89398000D01*
X105873000Y-89378000D01*
X106127000Y-89378000D01*
X106127000Y-89398000D01*
X107176250Y-89398000D01*
X107335000Y-89239250D01*
X107335000Y-88839822D01*
X107452235Y-88918157D01*
X107700000Y-88967440D01*
X109900000Y-88967440D01*
X110147765Y-88918157D01*
X110357809Y-88777809D01*
X110498157Y-88567765D01*
X110547440Y-88320000D01*
X110547440Y-87120000D01*
X110543462Y-87100000D01*
X111252560Y-87100000D01*
X111252560Y-92900000D01*
X111301843Y-93147765D01*
X111442191Y-93357809D01*
X111652235Y-93498157D01*
X111900000Y-93547440D01*
X113953220Y-93547440D01*
X113942765Y-93600000D01*
X114030854Y-94042854D01*
X114030855Y-94042855D01*
X114065000Y-94093957D01*
X114065000Y-94285439D01*
X114283466Y-94812862D01*
X114687138Y-95216534D01*
X115204081Y-95430659D01*
X115652560Y-95879139D01*
X115652560Y-96300001D01*
X115720873Y-96643436D01*
X115915414Y-96934586D01*
X115916597Y-96935377D01*
X115761673Y-97090302D01*
X115665000Y-97323691D01*
X115665000Y-97739250D01*
X115823750Y-97898000D01*
X116873000Y-97898000D01*
X116873000Y-97878000D01*
X117127000Y-97878000D01*
X117127000Y-97898000D01*
X118176250Y-97898000D01*
X118335000Y-97739250D01*
X118335000Y-97323691D01*
X118238327Y-97090302D01*
X118083403Y-96935377D01*
X118084586Y-96934586D01*
X118279127Y-96643436D01*
X118347440Y-96300001D01*
X118347440Y-95649999D01*
X118279127Y-95306564D01*
X118084586Y-95015414D01*
X117793436Y-94820873D01*
X117450001Y-94752560D01*
X117029139Y-94752560D01*
X116825756Y-94549177D01*
X116935000Y-94285439D01*
X116935000Y-93714561D01*
X116865776Y-93547440D01*
X118300000Y-93547440D01*
X118547765Y-93498157D01*
X118757809Y-93357809D01*
X118898157Y-93147765D01*
X118947440Y-92900000D01*
X118947440Y-87100000D01*
X118898157Y-86852235D01*
X118757809Y-86642191D01*
X118547765Y-86501843D01*
X118300000Y-86452560D01*
X116865776Y-86452560D01*
X116935000Y-86285439D01*
X116935000Y-85714561D01*
X116716534Y-85187138D01*
X116312862Y-84783466D01*
X115785439Y-84565000D01*
X115214561Y-84565000D01*
X114687138Y-84783466D01*
X114283466Y-85187138D01*
X114065000Y-85714561D01*
X114065000Y-85906043D01*
X114030854Y-85957146D01*
X113942765Y-86400000D01*
X113953220Y-86452560D01*
X111900000Y-86452560D01*
X111652235Y-86501843D01*
X111442191Y-86642191D01*
X111301843Y-86852235D01*
X111252560Y-87100000D01*
X110543462Y-87100000D01*
X110498157Y-86872235D01*
X110357809Y-86662191D01*
X110147765Y-86521843D01*
X109935000Y-86479522D01*
X109935000Y-85535000D01*
X110424678Y-85535000D01*
X111209380Y-85209966D01*
X111809966Y-84609380D01*
X112135000Y-83824678D01*
X112135000Y-82975322D01*
X111809966Y-82190620D01*
X111209380Y-81590034D01*
X110424678Y-81265000D01*
X109575322Y-81265000D01*
X108790620Y-81590034D01*
X108190034Y-82190620D01*
X107865000Y-82975322D01*
X107865000Y-83824678D01*
X107898677Y-83905982D01*
X107810432Y-84038049D01*
X107730854Y-84157146D01*
X107642765Y-84600000D01*
X107665001Y-84711788D01*
X107665000Y-86479522D01*
X107452235Y-86521843D01*
X107350232Y-86590000D01*
X107134423Y-86590000D01*
X107084586Y-86515414D01*
X106793436Y-86320873D01*
X106450001Y-86252560D01*
X105549999Y-86252560D01*
X105206564Y-86320873D01*
X104915414Y-86515414D01*
X104720873Y-86806564D01*
X104652560Y-87149999D01*
X102797713Y-87149999D01*
X102779127Y-87056564D01*
X102584586Y-86765414D01*
X102293436Y-86570873D01*
X101950001Y-86502560D01*
X101348022Y-86502560D01*
X101173165Y-86385724D01*
X100951480Y-86341628D01*
X100951475Y-86341628D01*
X100876628Y-86326740D01*
X100801781Y-86341628D01*
X100526430Y-86341628D01*
X99795796Y-85610995D01*
X99912809Y-85532809D01*
X100053157Y-85322765D01*
X100102440Y-85075000D01*
X100102440Y-83525000D01*
X100078645Y-83405374D01*
X100184586Y-83334586D01*
X100185377Y-83333403D01*
X100340302Y-83488327D01*
X100573691Y-83585000D01*
X100989250Y-83585000D01*
X101148000Y-83426250D01*
X101148000Y-82377000D01*
X101402000Y-82377000D01*
X101402000Y-83426250D01*
X101560750Y-83585000D01*
X101976309Y-83585000D01*
X102209698Y-83488327D01*
X102388327Y-83309699D01*
X102485000Y-83076310D01*
X102485000Y-82535750D01*
X102326250Y-82377000D01*
X101402000Y-82377000D01*
X101148000Y-82377000D01*
X101128000Y-82377000D01*
X101128000Y-82123000D01*
X101148000Y-82123000D01*
X101148000Y-81073750D01*
X101402000Y-81073750D01*
X101402000Y-82123000D01*
X102326250Y-82123000D01*
X102485000Y-81964250D01*
X102485000Y-81423690D01*
X102388327Y-81190301D01*
X102209698Y-81011673D01*
X101976309Y-80915000D01*
X101560750Y-80915000D01*
X101402000Y-81073750D01*
X101148000Y-81073750D01*
X100989250Y-80915000D01*
X100573691Y-80915000D01*
X100340302Y-81011673D01*
X100185377Y-81166597D01*
X100184586Y-81165414D01*
X99893436Y-80970873D01*
X99550001Y-80902560D01*
X98899999Y-80902560D01*
X98556564Y-80970873D01*
X98265414Y-81165414D01*
X98226557Y-81223567D01*
X98205874Y-81215000D01*
X97794126Y-81215000D01*
X97413720Y-81372569D01*
X97122569Y-81663720D01*
X96965000Y-82044126D01*
X96965000Y-82455874D01*
X97122569Y-82836280D01*
X97262841Y-82976552D01*
X97250000Y-82985132D01*
X97162765Y-82926843D01*
X96915000Y-82877560D01*
X96315000Y-82877560D01*
X96235000Y-82893473D01*
X96235000Y-82535750D01*
X96076250Y-82377000D01*
X95152000Y-82377000D01*
X95152000Y-82397000D01*
X94898000Y-82397000D01*
X94898000Y-82377000D01*
X94878000Y-82377000D01*
X94878000Y-82123000D01*
X94898000Y-82123000D01*
X94898000Y-81073750D01*
X95152000Y-81073750D01*
X95152000Y-82123000D01*
X96076250Y-82123000D01*
X96235000Y-81964250D01*
X96235000Y-81423690D01*
X96138327Y-81190301D01*
X95959698Y-81011673D01*
X95726309Y-80915000D01*
X95310750Y-80915000D01*
X95152000Y-81073750D01*
X94898000Y-81073750D01*
X94739250Y-80915000D01*
X94323691Y-80915000D01*
X94090302Y-81011673D01*
X93935377Y-81166597D01*
X93934586Y-81165414D01*
X93643436Y-80970873D01*
X93300001Y-80902560D01*
X92649999Y-80902560D01*
X92306564Y-80970873D01*
X92015414Y-81165414D01*
X91882054Y-81365000D01*
X91237161Y-81365000D01*
X91150000Y-81347663D01*
X91062839Y-81365000D01*
X91062835Y-81365000D01*
X90804690Y-81416348D01*
X90799093Y-81420088D01*
X90424678Y-81265000D01*
X89575322Y-81265000D01*
X88790620Y-81590034D01*
X88190034Y-82190620D01*
X87865000Y-82975322D01*
X87865000Y-83824678D01*
X88190034Y-84609380D01*
X88320654Y-84740000D01*
X86178164Y-84740000D01*
X86136109Y-84677061D01*
X85884717Y-84509086D01*
X85663032Y-84464990D01*
X85663027Y-84464990D01*
X85588180Y-84450102D01*
X85513333Y-84464990D01*
X84536666Y-84464990D01*
X84461819Y-84450102D01*
X84386972Y-84464990D01*
X84386968Y-84464990D01*
X84165283Y-84509086D01*
X83913891Y-84677061D01*
X83871489Y-84740520D01*
X83690946Y-84921063D01*
X83676309Y-84915000D01*
X83260750Y-84915000D01*
X83102000Y-85073750D01*
X82848000Y-85073750D01*
X82689250Y-84915000D01*
X82273691Y-84915000D01*
X82040302Y-85011673D01*
X81861673Y-85190301D01*
X81765000Y-85423690D01*
X80710000Y-85423690D01*
X80710000Y-80710000D01*
X119290001Y-80710000D01*
X119290000Y-109290000D01*
G36*
X93630200Y-86684999D02*
X91614845Y-86684999D01*
X91539998Y-86670111D01*
X91465151Y-86684999D01*
X91465147Y-86684999D01*
X91243462Y-86729095D01*
X91243460Y-86729096D01*
X91243461Y-86729096D01*
X91055525Y-86854670D01*
X91055523Y-86854672D01*
X90992070Y-86897070D01*
X90949672Y-86960523D01*
X89305197Y-88605000D01*
X88074847Y-88605000D01*
X88000000Y-88590112D01*
X87925153Y-88605000D01*
X86810642Y-88605000D01*
X86847440Y-88420000D01*
X86847440Y-87770000D01*
X86798157Y-87522235D01*
X86657809Y-87312191D01*
X86459741Y-87179845D01*
X86586280Y-87127431D01*
X86877431Y-86836280D01*
X87035000Y-86455874D01*
X87035000Y-86260000D01*
X94055199Y-86260000D01*
X93630200Y-86684999D01*
X93630200Y-86684999D01*
G37*
X93630200Y-86684999D02*
X91614845Y-86684999D01*
X91539998Y-86670111D01*
X91465151Y-86684999D01*
X91465147Y-86684999D01*
X91243462Y-86729095D01*
X91243460Y-86729096D01*
X91243461Y-86729096D01*
X91055525Y-86854670D01*
X91055523Y-86854672D01*
X90992070Y-86897070D01*
X90949672Y-86960523D01*
X89305197Y-88605000D01*
X88074847Y-88605000D01*
X88000000Y-88590112D01*
X87925153Y-88605000D01*
X86810642Y-88605000D01*
X86847440Y-88420000D01*
X86847440Y-87770000D01*
X86798157Y-87522235D01*
X86657809Y-87312191D01*
X86459741Y-87179845D01*
X86586280Y-87127431D01*
X86877431Y-86836280D01*
X87035000Y-86455874D01*
X87035000Y-86260000D01*
X94055199Y-86260000D01*
X93630200Y-86684999D01*
G04 #@! TD*
M02*
